<svg width="961" height="674" xmlns="http://www.w3.org/2000/svg">

 <metadata id="imagebot_24">image/svg+xml</metadata>
 <g id="imagebot_2" label="Capa 1">
  <path label="Capa 1" fill="#e9d3c6" fill-rule="nonzero" stroke-width="8" stroke-linejoin="round" stroke-miterlimit="4" stroke-dashoffset="0" d="M 195.39649763795137 219.25266585771442 C 123.25055559511182 219.58322053194047 62.52543791772126 170.26275251406435 54.0412753780365 292.29436692600257 C 49.849210787212854 362.4940726575137 35.91237280570269 415.0224463917732 33.548833315479754 477.39122328989504 C 36.159502834987634 517.762548314631 36.71924504729509 559.270220530051 38.9748226096213 599.571649230647 C 38.1872901505828 623.753226267761 21.152382021260266 657.5308498510719 31.812370660895112 665.1437588916419 C 60.99650478528737 672.0448961867689 144.84869970850946 659.5581925739646 178.81083984885214 661.8722975898982 C 304.8760638953745 663.955743677616 415.2923869767308 660.0104068655371 535.0214134408355 664.2903526138664 C 582.2723765278756 661.6155982319713 645.1150469045818 665.5037731251716 692.4478468054831 664.4212957502602 C 766.030214942038 662.5056304799914 888.8732110358357 669.3217658846379 958.9014415962517 663.978079168141 C 964.9312830501019 546.7961031249404 921.2821559848428 407.26487535427805 908.9402731520712 319.703274146378 C 906.5478245506525 287.4847419004798 910.2563839920879 274.36582746487863 908.2471954712092 242.33171650614736 C 896.2591555018365 220.7374572861254 801.9408672849238 236.6307889677405 784.5880647878528 234.00254745094776 C 759.4990211174608 239.5240500773191 720.6826167271673 233.21634877001645 691.3576208149016 228.4306999938011 C 667.323574456197 226.8759804846287 648.5889354979396 217.56882392511955 627.0337580935657 220.66581434779766 C 592.0593544686675 221.08523463479878 549.6943804965556 218.15044644970897 513.8567789688885 219.45397108203167 C 472.03239796625974 220.85463921982637 439.646931746155 232.53227938414807 398.9997475351274 231.5000409846067 C 378.2270109447956 233.95809876624935 346.4803185826182 233.45613243417142 318.019706153661 229.77907556136245 C 276.6593317347586 218.47503087907432 233.3055200792909 219.5245448807657 195.39649763795137 219.25266585771442 z" id="imagebot_23"/>
  <path transform="rotate(2.89137 801.927 327.797) matrix(1.05855 0 0 1.05855 -5.40462 -428.386)" label="Capa 1" fill="#9788af" fill-rule="evenodd" stroke-width="1px" d="M785.07625,659.24521C777.45448,661.11762 769.48276,659.82232 761.80453,661.26363C755.5802,660.79202 749.33945,661.34003 743.24092,662.0204C737.13734,661.9256 731.20695,663.66266 725.24358,664.6969C719.01307,666.46818 717.18829,673.82581 719.5549,679.27292C721.04987,685.21578 722.20515,691.2653 722.25624,697.40512C723.11987,705.67593 726.52536,713.75109 725.79799,722.12839C724.64281,728.38102 725.57543,734.99122 728.65181,740.56749C731.09109,747.99967 728.3614,756.85738 733.5338,763.398C738.55629,767.51177 745.5636,765.45022 751.47343,766.48054C757.6494,766.69992 763.81628,768.60823 769.98454,767.38192C776.90931,767.86411 784.03286,769.9445 790.8726,767.76345C796.17519,768.22453 803.29697,767.68235 805.64325,762.011C808.47505,753.89016 805.35384,745.48628 803.89127,737.43358C802.64641,730.34675 801.79682,723.18335 800.80775,716.06574C801.3565,710.85611 800.28085,705.84562 797.9789,701.19227C796.29767,695.47283 795.81686,689.4451 794.68142,683.63963C795.03544,677.50177 794.00181,671.11527 790.70811,665.83441C790.23023,662.93238 788.95592,658.42727 785.07625,659.24521zM794.74652,683.62955C794.9332,683.25369 794.91111,683.29817 794.74652,683.62955zM795.24962,684.90929C796.43473,685.05934 794.69599,683.78448 795.24962,684.90929zM795.74335,684.35521C795.88425,683.76948 795.06153,684.62528 795.74335,684.35521zM797.49211,697.45951C796.79829,698.15499 798.28725,697.69147 797.49211,697.45951zM798.44887,700.3949L799.09493,700.16502L798.44887,700.3949zM797.45214,700.93774C798.18925,702.51477 798.35668,699.79327 797.45214,700.93774zM798.15781,704.07638C799.68233,704.55687 797.78105,702.91467 798.15781,704.07638zM799.04752,704.91016C801.18926,705.45953 797.885,703.09368 799.04752,704.91016zM799.87752,705.37219L800.14085,705.50706L799.87752,705.37219zM799.28256,706.12096C798.60017,707.68595 800.42089,706.51004 799.28256,706.12096zM800.34763,767.07547C799.70512,766.34449 800.39033,767.78563 800.34763,767.07547zM785.18706,768.63401C783.82732,767.76233 784.66586,769.63567 785.18706,768.63401zM781.5338,768.59821C781.00087,767.584 781.06461,769.63381 781.5338,768.59821zM780.78892,768.70234C779.02823,769.25909 781.81078,770.33377 780.78892,768.70234zM758.62578,767.51637L758.32992,767.57747L758.62578,767.51637zM749.85213,766.22166C748.43502,766.31096 753.05415,766.87289 749.85213,766.22166zM732.02647,761.44839C731.58306,759.79975 730.89161,762.24272 732.02647,761.44839zM730.66408,757.31426L730.61428,757.35166L730.66408,757.31426zM722.17726,697.77038C721.57518,696.90875 722.26106,699.65598 722.17726,697.77038zM722.05036,697.51489C722.94595,697.56219 721.68945,696.82783 722.05036,697.51489zM722.19868,691.24227C722.48079,691.5605 722.21568,690.85512 722.19868,691.24227zM721.34926,683.37549C720.26253,682.66046 720.63178,684.64761 721.34926,683.37549zM783.6797,660.60259L783.7702,660.63189L783.6797,660.60259zM776.58397,660.32701C777.82916,659.14768 777.35704,661.35087 776.58397,660.32701zM786.28697,665.65889C787.08343,665.27955 786.19107,666.46335 786.28697,665.65889zM786.80209,665.70929C787.74722,665.35657 786.4169,666.53195 786.80209,665.70929zM723.72795,665.86775C723.89476,666.50415 723.08176,665.53338 723.72795,665.86775zM793.97275,673.68511C795.5065,674.14925 792.71833,674.50542 793.97275,673.68511zM793.63173,681.03653C794.15069,682.18314 792.02325,679.75902 793.63173,681.03653zM720.5225,681.01503C723.46951,681.7751 718.65267,681.27437 720.5225,681.01503zM721.59405,687.35968C722.50209,688.10255 720.55396,687.44778 721.59405,687.35968zM796.48799,697.1563C795.99816,697.49591 796.18559,696.35534 796.48799,697.1563zM800.44622,711.60711C803.01686,711.92149 799.41601,713.64107 800.44622,711.60711zM726.37827,720.53222L726.6095,720.58892L726.37827,720.53222zM731.05382,756.47119C731.85325,756.69563 730.3008,757.05017 731.05382,756.47119zM738.77111,760.47645C739.6748,761.33445 737.56085,760.86275 738.77111,760.47645zM793.06076,765.28634C794.736,765.46349 792.75928,767.13816 793.06076,765.28634zM796.06942,765.69997C797.58112,768.33732 793.15777,764.66131 796.06942,765.69997zM799.69713,766.22754C799.7996,767.25133 798.69767,765.59125 799.69713,766.22754zM792.15113,766.10938C792.43388,766.7099 791.06167,765.56369 792.15113,766.10938zM796.09606,766.75783C796.20326,767.1222 795.6871,766.55757 796.09606,766.75783zM793.00058,767.16791C794.64213,767.86722 791.57097,767.36358 793.00058,767.16791zM741.72271,765.14175C742.52763,764.3597 741.96254,765.8698 741.72271,765.14175zM736.86382,764.9489C737.85987,766.06754 734.67244,764.303 736.86382,764.9489z" id="imagebot_22"/>
  <path transform="translate(-97.6563 0) matrix(1.05855 0 0 1.05855 -106.967 -410.808)" label="Capa 1" fill="#ff7f2a" fill-rule="evenodd" stroke-width="1px" d="M807.77622,820.71007C800.84066,817.46262 792.93309,817.46632 785.45605,817.24759C773.05079,818.87857 760.8454,814.13833 748.40777,815.41983C741.90331,815.92456 735.25433,815.08108 728.87735,816.61136C723.78181,821.19928 727.025,829.93543 726.55424,836.16622C725.90206,845.25794 724.50167,854.32721 723.09449,863.31113C723.07499,870.70254 721.18731,877.95606 719.82723,885.15569C716.69931,894.91768 721.36307,905.35743 717.85553,915.09431C716.47775,922.85887 714.96061,930.84031 715.77442,938.72497C718.44506,946.3245 728.74762,942.43181 733.6523,947.72336C740.808,951.00013 749.04711,948.54529 756.33808,951.39339C764.70001,953.36014 773.34865,952.22097 781.84916,952.66129C788.02216,951.90201 797.36861,959.25864 801.09617,950.93738C803.10295,941.50217 806.49122,931.6364 803.79527,922.00592C802.53782,915.57035 803.82517,909.07329 804.12592,902.65404C803.81089,894.83491 803.63615,886.88735 805.72753,879.27943C806.21761,871.45578 804.11502,863.579 805.92362,855.80613C807.24748,849.03918 808.23275,842.19778 808.36082,835.3139C809.39997,830.6156 812.4629,824.5012 807.77622,820.71007zM806.91505,848.68405L807.26677,848.72205L806.91505,848.68405zM804.83607,931.07265C804.33289,932.63184 806.44176,930.79336 804.83607,931.07265zM803.88908,934.89724C804.44185,935.45245 803.88882,934.34986 803.88908,934.89724zM804.20194,934.88614C805.98097,935.80339 803.81824,933.75461 804.20194,934.88614zM804.23764,934.91904L804.54975,934.90734L804.23764,934.91904zM804.55959,934.89874C805.15219,934.72483 804.94197,934.78652 804.55959,934.89874zM804.29039,934.97204L804.24489,934.98104L804.29039,934.97204zM804.24489,934.98104L803.99621,934.99934L804.24489,934.98104zM804.27019,935.80846C805.07227,935.22343 803.40897,935.40837 804.27019,935.80846zM802.04858,946.24827C802.59764,945.90127 801.3594,945.65122 802.04858,946.24827zM802.09038,945.87354C802.26374,945.27128 801.2132,945.63831 802.09038,945.87354zM801.34916,947.38966C800.77681,947.40726 801.85311,947.81559 801.34916,947.38966zM786.47588,952.9429C785.99027,952.82353 786.78072,953.51488 786.47588,952.9429zM782.70286,952.42625C782.80804,952.88985 783.07084,951.96557 782.70286,952.42625zM782.77826,952.55477C781.16997,952.82203 783.6264,953.47954 782.77826,952.55477zM781.55005,952.66923C780.2344,953.07403 782.16253,952.94532 781.55005,952.66923zM727.17235,943.88866C725.64489,943.6811 727.77838,945.47179 727.17235,943.88866zM725.34763,943.83906C724.41371,944.2262 726.26419,944.55317 725.34763,943.83906zM724.89334,943.69327L724.78533,943.73387L724.89334,943.69327zM719.3195,908.47422C720.54386,908.28403 718.36704,907.6449 719.3195,908.47422zM726.57695,823.83327C725.99369,823.32298 726.3781,824.28566 726.57695,823.83327zM726.30978,823.89887L725.98331,824.06946L726.30978,823.89887zM726.23488,823.87947C727.81007,823.34206 725.14201,823.13728 726.23488,823.87947zM726.25588,822.24462C728.09226,821.78998 724.53782,821.39688 726.25588,822.24462zM726.4826,821.56243C727.30548,822.82052 726.32759,820.84849 726.4826,821.56243zM726.5396,819.67607C726.15985,819.51495 726.5973,820.37773 726.5396,819.67607zM803.38201,818.8482C803.83095,818.72133 803.02219,818.40881 803.38201,818.8482zM803.55938,818.73544L803.58518,818.84631L803.55938,818.73544zM804.60543,827.91508C803.56973,829.50077 803.41018,825.98207 804.60543,827.91508zM800.87394,826.4699L800.81014,826.68175L800.87394,826.4699zM800.87303,826.75067C801.42478,827.2583 800.32831,826.81707 800.87303,826.75067zM800.78743,826.71537C800.66332,827.19412 800.40148,826.22278 800.78743,826.71537zM801.46152,827.34823C800.47564,828.13741 800.69886,826.48904 801.46152,827.34823zM801.12395,827.15856C798.77674,825.11751 801.33656,828.16038 801.12395,827.15856zM799.01166,826.98559C799.37674,828.77164 798.53047,830.97931 799.01166,826.98559zM727.15127,818.00813C728.58443,818.22697 725.70544,819.00466 727.15127,818.00813zM805.04183,878.87259C805.32312,879.55605 804.51436,878.85669 805.04183,878.87259zM804.52645,931.37641C805.01535,931.86742 803.74201,931.43801 804.52645,931.37641z" id="imagebot_21"/>
  <path transform="matrix(-1.3273 0 0 1.3273 1012.67 -899.487)" label="Capa 1" display="inline" fill="#d85454" fill-rule="nonzero" stroke-width="8" stroke-linejoin="round" stroke-miterlimit="4" stroke-dashoffset="0" d="M580.51716,677.67348C550.29974,677.43151 527.66534,678.89417 497.57264,678.81637C457.90104,681.5336 414.92646,677.01508 375.86516,681.22001C341.10589,683.8915 311.53927,677.6906 277.64056,681.38228C233.99369,689.04142 196.78599,676.21124 168.0857,681.56688C155.33648,691.88304 122.45909,702.40408 109.91237,741.2202C104.33047,758.48909 86.70822,763.31826 84.11714,787.12254C78.06678,811.43047 51.48652,857.93419 51.48652,857.93419C51.48652,857.93419 114.39807,864.18441 142.86671,865.13998C175.16204,864.11801 212.18794,857.08827 244.4532,857.1181C277.1127,857.1483 308.11226,857.41001 336.5081,857.61255C361.00236,857.78726 393.24674,851.84843 411.73596,852.40428C458.11874,854.3685 509.21262,859.67737 545.44972,858.19815C569.75846,857.20585 603.04956,845.16079 627.98838,847.05902C653.79614,848.78518 680.039,858.35821 697.65559,859.52058C717.05284,860.80044 737.73171,856.80312 760.00775,860.22719C759.75615,852.66846 751.92939,841.0602 744.79084,832.40924C725.89908,818.65905 727.3393,804.21077 713.72933,787.83146C706.84112,779.54166 690.19978,763.96879 679.3335,752.76992C672.43931,736.15664 656.31805,720.88054 639.55481,705.80855C631.12916,695.03568 617.81581,679.58079 617.81581,679.58079C617.81581,679.58079 587.74271,677.69992 580.51716,677.6735L580.51716,677.67348z" id="imagebot_20"/>
  <path transform="translate(-160.156 19.5313) matrix(1.05855 0 0 1.05855 10.2204 -438.152)" label="Capa 1" fill="#9788af" fill-rule="evenodd" stroke-width="1px" d="M526.81437,649.68665C520.2167,651.65579 513.24453,649.62415 506.65299,651.20592C499.70413,651.0914 492.87831,650.2637 486.08239,651.73653C480.72775,650.66855 475.89757,653.00533 470.65876,653.41014C465.20955,654.30515 460.39251,659.36363 461.54975,665.1381C461.93693,672.36305 464.21226,679.40436 463.54179,686.67065C463.56819,697.1636 466.66926,707.50422 465.91461,717.99662C464.52427,723.43565 463.6735,729.06888 466.47803,734.28247C469.06149,742.00366 467.39556,750.20574 468.65751,758.09942C468.89124,764.91315 475.60022,767.50833 481.54161,766.86023C487.6353,767.78176 493.7932,768.09042 499.89193,769.39533C506.13991,767.88226 512.14244,771.02819 518.40435,770.79823C524.73034,771.09596 530.9818,769.88412 537.25334,769.28168C540.47599,765.66917 542.43062,760.3877 542.52345,755.65669C542.01243,747.14371 541.0369,738.66278 539.74134,730.23488C540.34995,722.68263 537.79851,715.14358 539.31057,707.60219C539.55106,702.18056 536.22471,697.62261 536.21191,691.84946C535.05692,686.8948 536.02884,681.82809 534.34526,676.96287C534.85379,672.14429 535.98441,667.08498 533.66054,662.39964C531.01371,658.36917 533.14846,651.03379 527.48935,649.6437L526.81437,649.6867L526.81437,649.6867L526.81437,649.68665zM534.80525,677.00798C535.04101,676.52968 534.95118,676.71192 534.80525,677.00798zM535.2203,678.44172C536.41444,678.85708 534.90069,676.52509 535.2203,678.44172zM535.73123,677.84206C535.97331,677.3428 535.0483,677.84606 535.73123,677.84206zM536.6788,692.42236C536.13798,693.29123 537.35938,692.66839 536.6788,692.42236zM537.43944,695.70517L538.05436,695.47893L537.43944,695.70517zM536.44091,696.27742C537.30957,697.90711 537.37984,695.05724 536.44091,696.27742zM536.9461,699.77813C538.39458,699.95366 536.58486,698.66974 536.9461,699.77813zM537.76199,700.72895C540.02662,701.38266 536.62734,698.4096 537.76199,700.72895zM538.54112,701.26581L538.80596,701.43391L538.54112,701.26581zM537.92077,702.0783C537.39777,703.81919 538.95292,702.62411 537.92077,702.0783zM535.46653,769.6886C534.80251,769.14095 535.62881,770.4322 535.46653,769.6886zM520.66207,770.96652C519.21039,770.29609 520.17878,771.95253 520.66207,770.96652zM517.1182,770.81834C516.57905,769.70638 516.50531,771.92772 517.1182,770.81834zM516.3893,770.91164C514.67512,771.61003 517.16116,772.82424 516.3893,770.91164zM494.94504,768.93892L494.62185,769.00462L494.94504,768.93892zM486.5032,767.2431C484.95868,767.10939 488.95453,768.13916 486.5032,767.2431zM469.47425,761.42198C468.96649,759.77723 468.38646,762.11964 469.47425,761.42198zM468.38845,756.79813L468.33835,756.83813L468.38845,756.79813zM463.5583,690.53147C463.17829,689.53464 463.2648,692.30225 463.5583,690.53147zM463.4496,690.24444C464.28895,690.04002 463.12245,689.62261 463.4496,690.24444zM463.95255,683.29456C464.25121,683.56271 463.95155,682.8999 463.95255,683.29456zM463.57822,674.54765C462.34205,673.73994 462.46949,675.92709 463.57822,674.54765zM525.38093,651.15004L525.46733,651.18524L525.38093,651.15004zM518.5094,650.63389C520.156,649.83909 518.89905,651.79993 518.5094,650.63389zM527.62231,656.83323C528.43642,656.70855 527.47059,657.58756 527.62231,656.83323zM528.11937,656.90443C529.04324,656.79622 527.63539,657.67443 528.11937,656.90443zM466.88891,655.20792C467.07301,655.82862 466.24639,655.01047 466.88891,655.20792zM534.62297,665.95985C536.20529,666.63294 533.22183,667.03987 534.62297,665.95985zM533.87133,674.10007C534.44183,675.17022 532.44631,673.19538 533.87133,674.10007zM462.91087,671.90619C466.23432,673.34279 460.58142,671.77477 462.91087,671.90619zM463.5878,678.97212C464.33163,679.86716 462.61652,679.03192 463.5878,678.97212zM535.72125,692.05642C535.44653,692.3998 535.15084,691.3691 535.72125,692.05642zM538.73627,708.19516C541.13641,708.97248 537.54517,710.1817 538.73627,708.19516zM466.33328,715.89168L466.55445,715.96138L466.33328,715.89168zM468.81489,755.87506C469.52438,756.13048 468.16004,756.57677 468.81489,755.87506zM476.07637,760.54466C476.87432,761.56523 474.91276,761.08619 476.07637,760.54466zM528.49606,767.48872C529.91718,767.97262 528.16148,769.22245 528.49606,767.48872zM531.39264,768.0366C533.13897,770.73933 528.15882,767.34624 531.39264,768.0366zM534.88361,768.72917C535.0558,769.69871 533.84815,768.36455 534.88361,768.72917zM527.56602,768.3742C528.06118,768.84636 526.58163,768.17097 527.56602,768.3742zM531.35796,769.21021C531.49791,769.5489 530.95097,769.11771 531.35796,769.21021zM528.32992,769.57298C529.56576,770.55117 527.17332,769.58388 528.32992,769.57298zM478.67429,765.80458C479.70465,765.4758 478.55606,766.42005 478.67429,765.80458zM473.96915,765.44655C474.97502,766.50965 472.07121,765.15383 473.96915,765.44655z" id="imagebot_18"/>
  <path transform="translate(85.9375 -5.85938) matrix(1.05855 0 0 1.05855 14.1266 -412.761)" label="Capa 1" fill="#ff7f2a" fill-rule="evenodd" stroke-width="1px" d="M220.77451,820.80336C230.25654,816.95788 240.72114,818.32872 250.636,818.79071C260.89377,818.49068 271.16739,816.2019 281.40835,818.03665C287.412,818.50641 294.39141,817.05349 299.32738,821.37236C300.53275,830.7116 298.14314,840.11867 299.69316,849.46323C300.85285,858.9634 301.48416,868.51681 302.36534,878.0348C303.74137,885.84988 305.88683,893.86659 303.85667,901.77973C302.88595,911.96376 306.62999,921.85895 306.2872,932.04126C308.09326,938.97665 302.71206,943.62715 296.12668,943.5053C289.0514,945.8987 282.19406,949.02851 274.50093,948.07385C268.34496,948.20078 262.44798,950.57406 256.22659,950.0628C249.33694,950.17571 242.33578,948.81188 235.54757,950.16518C230.53721,952.45965 222.41674,951.96033 222.27785,944.97871C220.92248,938.46637 219.91202,931.74379 219.72491,925.14188C221.62081,918.02384 222.737,910.54919 221.44367,903.23798C221.75255,894.47395 222.72454,885.56532 220.73469,876.93442C220.85575,868.67054 222.97658,860.34704 220.96436,852.14201C219.27811,845.1437 220.7206,837.82118 218.75386,830.93753C217.84555,827.50005 217.47375,823.14378 220.77451,820.80336zM220.64581,847.9555C220.10332,847.995 220.29946,847.9807 220.64581,847.9555zM219.82333,927.90796C220.38552,929.48563 218.12661,927.50261 219.82333,927.90796zM220.60978,931.64872C220.10776,932.26586 220.55538,931.1048 220.60978,931.64872zM220.30684,931.62712C218.54228,932.72332 220.6372,930.4491 220.30684,931.62712zM220.27094,931.65822L219.96871,931.63622L220.27094,931.65822zM219.95946,931.62742L219.61112,931.51163L219.95946,931.62742zM220.21797,931.70772L220.26197,931.71812L220.21797,931.70772zM220.26197,931.71812L220.50242,931.74442L220.26197,931.71812zM220.20897,932.51952C219.38313,931.95463 221.10815,932.1733 220.20897,932.51952zM222.00335,942.71806C221.45354,942.29355 222.78538,942.27869 222.00335,942.71806zM221.97575,942.35328C221.81643,941.69253 222.85269,942.31078 221.97575,942.35328zM222.64217,943.84881C223.20828,943.90991 222.09399,944.21791 222.64217,943.84881zM236.87141,949.74539C237.3739,949.68769 236.47978,950.26506 236.87141,949.74539zM240.54739,949.37447C240.39468,949.83227 240.25018,948.86406 240.54739,949.37447zM240.46979,949.49645C242.09202,949.68038 239.58194,950.42322 240.46979,949.49645zM241.6567,949.64972C243.07911,949.94499 241.06722,950.00484 241.6567,949.64972zM294.6817,943.00963C296.11951,942.89516 293.97568,944.35539 294.6817,943.00963zM296.4526,943.02443C297.38939,943.46249 295.44688,943.61136 296.4526,943.02443zM296.89808,942.89872L297.00147,942.94172L296.89808,942.89872zM303.51535,908.94342C302.28965,908.7369 304.52887,908.18482 303.51535,908.94342zM299.39455,826.62882C299.8817,826.04975 299.64826,827.10458 299.39455,826.62882zM299.65135,826.70152C300.09973,826.95644 299.98279,826.88995 299.65135,826.70152zM299.72455,826.68532C298.11888,826.21989 300.86039,825.94534 299.72455,826.68532zM299.76055,825.09949C298.01946,824.53597 301.42258,824.48803 299.76055,825.09949zM299.56418,824.43023C298.86001,825.80978 299.45959,823.88682 299.56418,824.43023zM299.57418,822.59933C300.01581,822.52643 299.35802,823.25702 299.57418,822.59933zM225.09927,819.14957C224.64138,818.9929 225.52337,818.77375 225.09927,819.14957zM224.9313,819.03404L224.9025,819.1407L224.9313,819.03404zM223.60088,827.8982C224.56768,829.40724 224.60231,826.07054 223.60088,827.8982zM227.26854,826.6256L227.32294,826.83332L227.26854,826.6256zM227.25954,826.89782C226.62588,827.30394 227.79779,827.04916 227.25954,826.89782zM227.34384,826.86672C227.4876,827.34981 227.68757,826.34277 227.34384,826.86672zM226.66846,827.45709C227.50692,828.3916 227.40595,826.53959 226.66846,827.45709zM227.00236,827.28502C229.14713,824.94838 227.23148,828.22983 227.00236,827.28502zM229.05637,827.19002C228.62977,830.26493 229.47853,829.89209 229.05637,827.19002zM299.03863,820.96133C297.6439,821.21854 300.38771,821.75479 299.03863,820.96133zM221.42227,877.28996C221.01776,877.8992 221.9785,877.33986 221.42227,877.28996zM220.11331,928.21337C219.61591,928.70237 220.90101,928.24097 220.11331,928.21337z" id="imagebot_15"/>
  <path transform="translate(-15.625 -3.90625) matrix(1.05855 0 0 1.05855 -130.405 -402.996)" label="Capa 1" fill="#b5c1c1" fill-rule="nonzero" stroke-width="8" stroke-linejoin="round" stroke-miterlimit="4" stroke-dashoffset="0" d="M534.98208,709.1307C524.2959,710.49863 513.77758,705.55082 503.17279,706.75235C493.1332,708.95933 482.6515,710.24052 472.65998,707.13334C459.64631,708.87861 446.59467,706.86705 433.58983,708.67146C424.1154,710.12898 414.54064,707.12932 405.2255,708.45698C399.3391,713.76787 400.49963,724.04923 400.19024,732.01803C399.4121,737.74272 401.07506,744.93198 400.4469,745.41229C400.66821,750.89061 398.52025,757.93214 400.72715,761.7654C396.33295,770.29397 401.28038,777.25384 408.85899,773.92959C418.30851,773.91699 427.91516,777.38133 437.29961,774.12852C447.90474,776.15272 458.6775,774.58776 469.3156,773.66949C473.3426,773.41118 481.27283,772.46027 479.62909,774.0867C490.60431,776.64458 501.26505,770.2597 512.25001,771.42613C519.69198,770.22564 525.1105,775.79261 533.0302,773.06245C540.31429,776.07367 549.39804,768.50336 557.11893,774.17547C564.24055,770.89519 572.38583,774.79943 580.68469,775.19398C589.13306,774.51308 597.69417,773.48746 605.89415,777.37738C615.92842,781.57777 613.43636,765.92748 613.90585,759.26753C613.81165,751.18342 612.55869,743.29008 613.7884,736.44441C614.10506,728.53515 617.06792,719.22167 613.08539,711.61734C604.64499,710.81576 596.13543,712.25469 587.71185,711.67064C580.58679,712.31888 573.77307,709.05465 566.97219,709.54939C551.83217,711.57794 551.07622,702.83521 534.98208,709.13068L534.98208,709.1307zM569.21503,719.99267C576.56291,721.46747 581.71846,722.53601 589.31518,720.56572C594.61675,722.10393 609.98522,717.48239 605.71018,729.30838C605.97121,738.89006 603.67202,747.08603 603.85272,756.78584C602.13654,761.04135 607.79392,768.05078 600.81906,763.51739C597.57844,762.7033 590.3617,762.51771 595.34156,757.71654C590.60524,751.24797 593.70026,732.68299 592.74619,723.75142C594.15767,716.20883 582.90204,711.39684 585.18754,722.58217C589.8193,730.8869 585.34666,747.42459 587.34667,755.92276C584.70699,759.63673 590.45114,762.48912 584.28381,763.65286C577.0995,764.28455 565.9182,762.04084 569.66761,749.89398C573.17341,743.07776 568.25585,737.89719 569.0646,729.51841C569.0119,726.34225 569.1377,723.1672 569.21513,719.99267zM516.06298,719.67913C521.46341,719.50935 511.93401,728.20398 516.04838,733.29647C518.59786,741.41871 518.80705,750.59033 517.04599,759.04492C512.27648,762.30613 503.87303,756.90204 498.22463,761.67531C501.70377,756.53863 498.83661,751.70051 500.1324,745.77193C499.98644,737.72007 499.19004,727.50311 499.87313,720.88699C505.077,718.78768 510.71321,720.40856 516.06261,719.67909zM534.14917,720.03744C541.53547,718.19509 540.00806,730.19326 541.28527,736.02444C540.77543,739.94012 539.9485,746.72684 541.44108,745.77897C541.60904,749.46382 541.99801,754.29908 541.13339,759.87401C536.25412,761.60973 525.48107,764.45545 523.53534,758.32835C523.85841,749.91877 523.41985,741.06157 523.26659,732.09469C517.04322,719.84067 527.43772,720.6254 534.14917,720.03744zM540.56935,746.01937C540.42155,746.99999 540.47295,746.65523 540.56935,746.01937zM562.92115,721.50378C561.2401,730.74 565.20856,740.11624 565.12135,749.00224C563.66673,755.75557 564.86763,764.08006 556.68264,762.03719C553.13735,763.78482 553.18645,765.85554 550.51659,762.21264C548.35172,762.55512 541.93243,763.9798 546.89281,761.47863C547.1983,752.10783 548.47986,742.61417 546.55595,733.18911C546.64115,727.63116 544.2612,718.90024 551.33551,722.47825C555.18827,722.02091 559.04545,721.46539 562.92115,721.50378zM409.94873,720.04138C416.83622,720.24714 425.1298,721.48026 424.34068,732.23933C420.91931,737.97517 419.78839,750.1904 423.50719,756.96796C423.00917,760.58345 411.33811,765.78442 409.18648,757.63512C407.21269,753.43782 410.76108,743.04873 408.06065,742.55506C412.80841,740.03803 405.69332,729.76849 411.29866,726.9929C411.33346,724.60124 410.8669,722.15168 409.94873,720.04138zM492.85193,721.26439C494.16467,728.38831 493.12847,736.48259 493.47828,742.83118C496.19825,745.82773 491.42541,763.58794 488.07382,763.53046C484.52859,764.21086 477.92773,761.49049 476.11177,760.80215C474.44746,751.38671 476.03677,742.08842 476.61045,732.5361C475.21994,726.20765 474.93979,719.8897 482.03515,722.94109C485.93041,724.35585 489.24783,722.60786 492.85193,721.26439zM492.35995,762.13754C491.78716,761.3196 491.88279,761.45613 492.35995,762.13754zM491.88718,761.46233C491.46058,760.52386 491.53389,760.68519 491.88718,761.46233zM494.44901,744.98695C491.15097,743.03148 493.87883,746.68875 494.44901,744.98695zM437.39955,720.90517C446.73015,718.38434 449.52672,730.75201 444.68493,738.53822C447.41774,746.29069 446.75454,754.01495 445.45634,761.17641C449.04563,765.03608 455.09716,759.95914 451.14382,756.54173C455.00055,754.59066 450.00227,744.58866 452.6813,739.04561C451.59565,731.23819 450.41052,719.77699 459.59228,721.91333C463.09111,718.97334 469.89022,724.7279 469.04575,723.08643C469.74941,724.22566 467.88393,737.39195 468.48767,743.13389C468.58337,748.33447 468.18207,756.53291 469.81844,758.09234C470.50055,767.64145 465.42859,758.64435 461.82348,761.81881C467.21537,766.98221 455.92166,760.57447 452.87682,762.66478C445.54247,761.71971 438.98275,759.79936 431.73887,761.9558C425.93456,761.61585 429.65684,756.03727 427.93916,752.14653C431.28209,742.29335 426.81417,730.33191 430.23584,721.23899C432.5457,720.20658 435.02605,721.35297 437.39955,720.90515zM427.35412,760.79726C428.25754,761.23578 427.00845,761.45501 427.35412,760.79726z" id="imagebot_14"/>
  <path transform="rotate(7.14927 147.57 348.012) matrix(1.05855 0 0 1.05855 -142.123 -402.996)" label="Capa 1" fill="#9788af" fill-rule="evenodd" stroke-width="1px" d="M293.85119,654.27545C286.87075,656.50202 279.39293,655.2063 272.37935,657.086C266.66387,657.88059 260.78311,656.33982 255.32053,658.49806C250.61918,659.26721 245.54524,658.38241 241.1793,660.6792C235.51819,660.7209 228.38655,663.65915 227.88237,670.09007C228.38351,677.25138 232.08225,683.95197 232.12151,691.19055C232.90115,700.70394 236.96783,709.66883 237.41511,719.20541C235.64997,725.1328 237.00773,730.59696 239.93784,735.73817C242.16882,741.81981 242.33301,748.34971 243.31299,754.66693C244.48931,762.11249 252.14829,763.46856 258.3501,762.59446C264.76595,763.02022 271.06543,763.1119 277.45605,763.51965C284.23962,762.02775 290.7675,764.37519 297.59258,763.51929C303.42658,762.63916 309.354,762.20183 315.09303,760.85811C319.04255,756.96299 320.58499,749.58892 318.57317,744.13918C317.25727,735.51167 313.90258,727.28857 313.31124,718.53702C310.78557,712.82798 313.04844,705.98718 310.62122,700.69099C308.18589,696.30975 306.33912,689.85511 305.92067,684.42752C303.71456,679.68409 304.06307,674.87993 303.96564,669.84815C301.02271,664.97324 300.343,658.28587 296.26395,654.49764C295.50743,654.18059 294.65317,654.09819 293.85119,654.27545zM304.46567,678.26384C304.67518,677.79712 304.58783,677.9917 304.46567,678.26384zM305.01833,679.52298C306.2836,679.70291 304.55304,678.12121 305.01833,679.52298zM305.49006,678.95006C305.65211,678.44888 304.80259,679.05272 305.49006,678.95006zM307.74886,691.97612C307.33198,692.81942 308.44201,692.1093 307.74886,691.97612zM308.81944,694.87194L309.4617,694.61471L308.81944,694.87194zM307.84466,695.45327C308.8332,696.86116 308.72238,694.30094 307.84466,695.45327zM308.67228,698.56197C310.38002,698.71611 308.14829,697.47439 308.67228,698.56197zM309.59384,699.3604C311.87665,699.90397 308.40981,697.2662 309.59384,699.3604zM310.44125,699.78968L310.72262,699.9202L310.44125,699.78968zM309.87596,700.56111C309.53978,702.21131 310.95274,700.91866 309.87596,700.56111zM313.3189,761.42762C312.59166,760.91486 313.51143,762.09843 313.3189,761.42762zM298.2307,763.57661C296.72846,763.02999 297.76637,764.51761 298.2307,763.57661zM294.57882,763.68334C293.95524,762.71429 294.03255,764.72215 294.57882,763.68334zM293.83858,763.8165C292.19476,764.48732 294.7182,765.54228 293.83858,763.8165zM271.64605,763.49633L271.32571,763.57553L271.64605,763.49633zM262.82856,762.54497C261.23317,762.52547 265.39895,763.18412 262.82856,762.54497zM244.8302,758.47099C244.15581,757.01093 243.80621,759.19242 244.8302,758.47099zM243.30752,754.39317L243.25922,754.43257L243.30752,754.39317zM232.50352,695.22584C232.03343,694.34389 232.34486,696.81957 232.50352,695.22584zM232.36677,694.97549C233.19266,694.77032 232.01223,694.40241 232.36677,694.97549zM232.27017,688.70186C232.58208,688.95107 232.26217,688.34005 232.27017,688.70186zM231.1144,680.87421C229.83852,680.21047 230.05169,682.20396 231.1144,680.87421zM292.50868,655.68629L292.60028,655.71199L292.50868,655.68629zM285.40759,655.68829C287.29335,654.63814 285.8476,656.87497 285.40759,655.68829zM295.31127,660.63746C296.10422,660.40835 295.27797,661.35862 295.31127,660.63746zM295.82796,660.66766C296.74457,660.43067 295.47199,661.43588 295.82796,660.66766zM232.80805,663.2874C232.99721,663.86201 232.15293,663.0993 232.80805,663.2874zM303.30442,668.35758C304.98902,668.83273 302.00262,669.45628 303.30442,668.35758zM303.25052,675.71669C303.92064,676.74198 301.68995,674.8861 303.25052,675.71669zM230.19614,678.54822C233.71414,679.61911 227.80992,678.58262 230.19614,678.54822zM231.51447,684.84623C232.28451,685.63321 230.54372,684.92063 231.51447,684.84623zM306.73366,691.71273C306.47483,692.05048 306.08845,691.10367 306.73366,691.71273zM311.25281,705.99807C313.73945,706.47828 310.32008,707.90048 311.25281,705.99807zM237.58957,717.8068L237.82283,717.8544L237.58957,717.8068zM243.66404,753.53594C244.39295,753.67677 243.1157,754.24095 243.66404,753.53594zM251.53175,757.23699C252.4167,758.1217 250.38851,757.79404 251.53175,757.23699zM305.96774,759.92462C307.55947,760.10659 306.04724,761.86045 305.96774,759.92462zM308.99026,760.22052C310.92105,762.65802 305.6492,759.63047 308.99026,760.22052zM312.63579,760.60612C312.81477,761.51345 311.57746,760.25972 312.63579,760.60612zM305.09094,760.78253C305.63175,761.19143 304.04838,760.6423 305.09094,760.78253zM309.05816,761.27654C309.20398,761.59138 308.63977,761.18984 309.05816,761.27654zM305.98104,761.8071C307.32001,762.59509 304.75884,761.906 305.98104,761.8071zM254.66316,761.7835C255.67704,761.34775 254.64426,762.38332 254.66316,761.7835zM249.80045,761.7805C250.88985,762.67742 247.80409,761.60826 249.80045,761.7805z" id="imagebot_13"/>
  <path transform="matrix(1.19625 0 0 1.19625 214.62 -320.864)" label="Capa 1" fill="#ffffff" fill-rule="nonzero" stroke-width="8" stroke-linejoin="round" stroke-miterlimit="4" stroke-dashoffset="0" id="imagebot_10" d="M239.11215,397.34487C236.85543,398.31624 240.41063,400.48545 240.27426,397.77065C239.97395,397.46869 239.53743,397.29945 239.11215,397.34487zM227.86801,412.04019C226.5218,415.18671 229.80799,411.96549 227.86801,412.04019z"/>
  <title>Capa 1</title>
  <path id="imagebot_25" transform="translate(19.5313 -3.90625) matrix(1.05855 0 0 1.05855 240.689 -408.855)" label="Capa 1" fill="#b5c1c1" fill-rule="nonzero" stroke-width="8" stroke-linejoin="round" stroke-miterlimit="4" stroke-dashoffset="0" d="M534.98208,709.1307C524.2959,710.49863 513.77758,705.55082 503.17279,706.75235C493.1332,708.95933 482.6515,710.24052 472.65998,707.13334C459.64631,708.87861 446.59467,706.86705 433.58983,708.67146C424.1154,710.12898 414.54064,707.12932 405.2255,708.45698C399.3391,713.76787 400.49963,724.04923 400.19024,732.01803C399.4121,737.74272 401.07506,744.93198 400.4469,745.41229C400.66821,750.89061 398.52025,757.93214 400.72715,761.7654C396.33295,770.29397 401.28038,777.25384 408.85899,773.92959C418.30851,773.91699 427.91516,777.38133 437.29961,774.12852C447.90474,776.15272 458.6775,774.58776 469.3156,773.66949C473.3426,773.41118 481.27283,772.46027 479.62909,774.0867C490.60431,776.64458 501.26505,770.2597 512.25001,771.42613C519.69198,770.22564 525.1105,775.79261 533.0302,773.06245C540.31429,776.07367 549.39804,768.50336 557.11893,774.17547C564.24055,770.89519 572.38583,774.79943 580.68469,775.19398C589.13306,774.51308 597.69417,773.48746 605.89415,777.37738C615.92842,781.57777 613.43636,765.92748 613.90585,759.26753C613.81165,751.18342 612.55869,743.29008 613.7884,736.44441C614.10506,728.53515 617.06792,719.22167 613.08539,711.61734C604.64499,710.81576 596.13543,712.25469 587.71185,711.67064C580.58679,712.31888 573.77307,709.05465 566.97219,709.54939C551.83217,711.57794 551.07622,702.83521 534.98208,709.13068L534.98208,709.1307zM569.21503,719.99267C576.56291,721.46747 581.71846,722.53601 589.31518,720.56572C594.61675,722.10393 609.98522,717.48239 605.71018,729.30838C605.97121,738.89006 603.67202,747.08603 603.85272,756.78584C602.13654,761.04135 607.79392,768.05078 600.81906,763.51739C597.57844,762.7033 590.3617,762.51771 595.34156,757.71654C590.60524,751.24797 593.70026,732.68299 592.74619,723.75142C594.15767,716.20883 582.90204,711.39684 585.18754,722.58217C589.8193,730.8869 585.34666,747.42459 587.34667,755.92276C584.70699,759.63673 590.45114,762.48912 584.28381,763.65286C577.0995,764.28455 565.9182,762.04084 569.66761,749.89398C573.17341,743.07776 568.25585,737.89719 569.0646,729.51841C569.0119,726.34225 569.1377,723.1672 569.21513,719.99267zM516.06298,719.67913C521.46341,719.50935 511.93401,728.20398 516.04838,733.29647C518.59786,741.41871 518.80705,750.59033 517.04599,759.04492C512.27648,762.30613 503.87303,756.90204 498.22463,761.67531C501.70377,756.53863 498.83661,751.70051 500.1324,745.77193C499.98644,737.72007 499.19004,727.50311 499.87313,720.88699C505.077,718.78768 510.71321,720.40856 516.06261,719.67909zM534.14917,720.03744C541.53547,718.19509 540.00806,730.19326 541.28527,736.02444C540.77543,739.94012 539.9485,746.72684 541.44108,745.77897C541.60904,749.46382 541.99801,754.29908 541.13339,759.87401C536.25412,761.60973 525.48107,764.45545 523.53534,758.32835C523.85841,749.91877 523.41985,741.06157 523.26659,732.09469C517.04322,719.84067 527.43772,720.6254 534.14917,720.03744zM540.56935,746.01937C540.42155,746.99999 540.47295,746.65523 540.56935,746.01937zM562.92115,721.50378C561.2401,730.74 565.20856,740.11624 565.12135,749.00224C563.66673,755.75557 564.86763,764.08006 556.68264,762.03719C553.13735,763.78482 553.18645,765.85554 550.51659,762.21264C548.35172,762.55512 541.93243,763.9798 546.89281,761.47863C547.1983,752.10783 548.47986,742.61417 546.55595,733.18911C546.64115,727.63116 544.2612,718.90024 551.33551,722.47825C555.18827,722.02091 559.04545,721.46539 562.92115,721.50378zM409.94873,720.04138C416.83622,720.24714 425.1298,721.48026 424.34068,732.23933C420.91931,737.97517 419.78839,750.1904 423.50719,756.96796C423.00917,760.58345 411.33811,765.78442 409.18648,757.63512C407.21269,753.43782 410.76108,743.04873 408.06065,742.55506C412.80841,740.03803 405.69332,729.76849 411.29866,726.9929C411.33346,724.60124 410.8669,722.15168 409.94873,720.04138zM492.85193,721.26439C494.16467,728.38831 493.12847,736.48259 493.47828,742.83118C496.19825,745.82773 491.42541,763.58794 488.07382,763.53046C484.52859,764.21086 477.92773,761.49049 476.11177,760.80215C474.44746,751.38671 476.03677,742.08842 476.61045,732.5361C475.21994,726.20765 474.93979,719.8897 482.03515,722.94109C485.93041,724.35585 489.24783,722.60786 492.85193,721.26439zM492.35995,762.13754C491.78716,761.3196 491.88279,761.45613 492.35995,762.13754zM491.88718,761.46233C491.46058,760.52386 491.53389,760.68519 491.88718,761.46233zM494.44901,744.98695C491.15097,743.03148 493.87883,746.68875 494.44901,744.98695zM437.39955,720.90517C446.73015,718.38434 449.52672,730.75201 444.68493,738.53822C447.41774,746.29069 446.75454,754.01495 445.45634,761.17641C449.04563,765.03608 455.09716,759.95914 451.14382,756.54173C455.00055,754.59066 450.00227,744.58866 452.6813,739.04561C451.59565,731.23819 450.41052,719.77699 459.59228,721.91333C463.09111,718.97334 469.89022,724.7279 469.04575,723.08643C469.74941,724.22566 467.88393,737.39195 468.48767,743.13389C468.58337,748.33447 468.18207,756.53291 469.81844,758.09234C470.50055,767.64145 465.42859,758.64435 461.82348,761.81881C467.21537,766.98221 455.92166,760.57447 452.87682,762.66478C445.54247,761.71971 438.98275,759.79936 431.73887,761.9558C425.93456,761.61585 429.65684,756.03727 427.93916,752.14653C431.28209,742.29335 426.81417,730.33191 430.23584,721.23899C432.5457,720.20658 435.02605,721.35297 437.39955,720.90515zM427.35412,760.79726C428.25754,761.23578 427.00845,761.45501 427.35412,760.79726z"/>
  <path id="imagebot_26" transform="translate(3.90625 15.625) matrix(1.05855 0 0 1.05855 -376.498 -406.902)" label="Capa 1" fill="#b5c1c1" fill-rule="nonzero" stroke-width="8" stroke-linejoin="round" stroke-miterlimit="4" stroke-dashoffset="0" d="M534.98208,709.1307C524.2959,710.49863 513.77758,705.55082 503.17279,706.75235C493.1332,708.95933 482.6515,710.24052 472.65998,707.13334C459.64631,708.87861 446.59467,706.86705 433.58983,708.67146C424.1154,710.12898 414.54064,707.12932 405.2255,708.45698C399.3391,713.76787 400.49963,724.04923 400.19024,732.01803C399.4121,737.74272 401.07506,744.93198 400.4469,745.41229C400.66821,750.89061 398.52025,757.93214 400.72715,761.7654C396.33295,770.29397 401.28038,777.25384 408.85899,773.92959C418.30851,773.91699 427.91516,777.38133 437.29961,774.12852C447.90474,776.15272 458.6775,774.58776 469.3156,773.66949C473.3426,773.41118 481.27283,772.46027 479.62909,774.0867C490.60431,776.64458 501.26505,770.2597 512.25001,771.42613C519.69198,770.22564 525.1105,775.79261 533.0302,773.06245C540.31429,776.07367 549.39804,768.50336 557.11893,774.17547C564.24055,770.89519 572.38583,774.79943 580.68469,775.19398C589.13306,774.51308 597.69417,773.48746 605.89415,777.37738C615.92842,781.57777 613.43636,765.92748 613.90585,759.26753C613.81165,751.18342 612.55869,743.29008 613.7884,736.44441C614.10506,728.53515 617.06792,719.22167 613.08539,711.61734C604.64499,710.81576 596.13543,712.25469 587.71185,711.67064C580.58679,712.31888 573.77307,709.05465 566.97219,709.54939C551.83217,711.57794 551.07622,702.83521 534.98208,709.13068L534.98208,709.1307zM569.21503,719.99267C576.56291,721.46747 581.71846,722.53601 589.31518,720.56572C594.61675,722.10393 609.98522,717.48239 605.71018,729.30838C605.97121,738.89006 603.67202,747.08603 603.85272,756.78584C602.13654,761.04135 607.79392,768.05078 600.81906,763.51739C597.57844,762.7033 590.3617,762.51771 595.34156,757.71654C590.60524,751.24797 593.70026,732.68299 592.74619,723.75142C594.15767,716.20883 582.90204,711.39684 585.18754,722.58217C589.8193,730.8869 585.34666,747.42459 587.34667,755.92276C584.70699,759.63673 590.45114,762.48912 584.28381,763.65286C577.0995,764.28455 565.9182,762.04084 569.66761,749.89398C573.17341,743.07776 568.25585,737.89719 569.0646,729.51841C569.0119,726.34225 569.1377,723.1672 569.21513,719.99267zM516.06298,719.67913C521.46341,719.50935 511.93401,728.20398 516.04838,733.29647C518.59786,741.41871 518.80705,750.59033 517.04599,759.04492C512.27648,762.30613 503.87303,756.90204 498.22463,761.67531C501.70377,756.53863 498.83661,751.70051 500.1324,745.77193C499.98644,737.72007 499.19004,727.50311 499.87313,720.88699C505.077,718.78768 510.71321,720.40856 516.06261,719.67909zM534.14917,720.03744C541.53547,718.19509 540.00806,730.19326 541.28527,736.02444C540.77543,739.94012 539.9485,746.72684 541.44108,745.77897C541.60904,749.46382 541.99801,754.29908 541.13339,759.87401C536.25412,761.60973 525.48107,764.45545 523.53534,758.32835C523.85841,749.91877 523.41985,741.06157 523.26659,732.09469C517.04322,719.84067 527.43772,720.6254 534.14917,720.03744zM540.56935,746.01937C540.42155,746.99999 540.47295,746.65523 540.56935,746.01937zM562.92115,721.50378C561.2401,730.74 565.20856,740.11624 565.12135,749.00224C563.66673,755.75557 564.86763,764.08006 556.68264,762.03719C553.13735,763.78482 553.18645,765.85554 550.51659,762.21264C548.35172,762.55512 541.93243,763.9798 546.89281,761.47863C547.1983,752.10783 548.47986,742.61417 546.55595,733.18911C546.64115,727.63116 544.2612,718.90024 551.33551,722.47825C555.18827,722.02091 559.04545,721.46539 562.92115,721.50378zM409.94873,720.04138C416.83622,720.24714 425.1298,721.48026 424.34068,732.23933C420.91931,737.97517 419.78839,750.1904 423.50719,756.96796C423.00917,760.58345 411.33811,765.78442 409.18648,757.63512C407.21269,753.43782 410.76108,743.04873 408.06065,742.55506C412.80841,740.03803 405.69332,729.76849 411.29866,726.9929C411.33346,724.60124 410.8669,722.15168 409.94873,720.04138zM492.85193,721.26439C494.16467,728.38831 493.12847,736.48259 493.47828,742.83118C496.19825,745.82773 491.42541,763.58794 488.07382,763.53046C484.52859,764.21086 477.92773,761.49049 476.11177,760.80215C474.44746,751.38671 476.03677,742.08842 476.61045,732.5361C475.21994,726.20765 474.93979,719.8897 482.03515,722.94109C485.93041,724.35585 489.24783,722.60786 492.85193,721.26439zM492.35995,762.13754C491.78716,761.3196 491.88279,761.45613 492.35995,762.13754zM491.88718,761.46233C491.46058,760.52386 491.53389,760.68519 491.88718,761.46233zM494.44901,744.98695C491.15097,743.03148 493.87883,746.68875 494.44901,744.98695zM437.39955,720.90517C446.73015,718.38434 449.52672,730.75201 444.68493,738.53822C447.41774,746.29069 446.75454,754.01495 445.45634,761.17641C449.04563,765.03608 455.09716,759.95914 451.14382,756.54173C455.00055,754.59066 450.00227,744.58866 452.6813,739.04561C451.59565,731.23819 450.41052,719.77699 459.59228,721.91333C463.09111,718.97334 469.89022,724.7279 469.04575,723.08643C469.74941,724.22566 467.88393,737.39195 468.48767,743.13389C468.58337,748.33447 468.18207,756.53291 469.81844,758.09234C470.50055,767.64145 465.42859,758.64435 461.82348,761.81881C467.21537,766.98221 455.92166,760.57447 452.87682,762.66478C445.54247,761.71971 438.98275,759.79936 431.73887,761.9558C425.93456,761.61585 429.65684,756.03727 427.93916,752.14653C431.28209,742.29335 426.81417,730.33191 430.23584,721.23899C432.5457,720.20658 435.02605,721.35297 437.39955,720.90515zM427.35412,760.79726C428.25754,761.23578 427.00845,761.45501 427.35412,760.79726z"/>
  <path id="imagebot_28" transform="translate(214.844 7.8125) matrix(1.05855 0 0 1.05855 -149.936 -418.621)" label="Capa 1" fill="#9788af" fill-rule="evenodd" stroke-width="1px" d="M526.81437,649.68665C520.2167,651.65579 513.24453,649.62415 506.65299,651.20592C499.70413,651.0914 492.87831,650.2637 486.08239,651.73653C480.72775,650.66855 475.89757,653.00533 470.65876,653.41014C465.20955,654.30515 460.39251,659.36363 461.54975,665.1381C461.93693,672.36305 464.21226,679.40436 463.54179,686.67065C463.56819,697.1636 466.66926,707.50422 465.91461,717.99662C464.52427,723.43565 463.6735,729.06888 466.47803,734.28247C469.06149,742.00366 467.39556,750.20574 468.65751,758.09942C468.89124,764.91315 475.60022,767.50833 481.54161,766.86023C487.6353,767.78176 493.7932,768.09042 499.89193,769.39533C506.13991,767.88226 512.14244,771.02819 518.40435,770.79823C524.73034,771.09596 530.9818,769.88412 537.25334,769.28168C540.47599,765.66917 542.43062,760.3877 542.52345,755.65669C542.01243,747.14371 541.0369,738.66278 539.74134,730.23488C540.34995,722.68263 537.79851,715.14358 539.31057,707.60219C539.55106,702.18056 536.22471,697.62261 536.21191,691.84946C535.05692,686.8948 536.02884,681.82809 534.34526,676.96287C534.85379,672.14429 535.98441,667.08498 533.66054,662.39964C531.01371,658.36917 533.14846,651.03379 527.48935,649.6437L526.81437,649.6867L526.81437,649.6867L526.81437,649.68665zM534.80525,677.00798C535.04101,676.52968 534.95118,676.71192 534.80525,677.00798zM535.2203,678.44172C536.41444,678.85708 534.90069,676.52509 535.2203,678.44172zM535.73123,677.84206C535.97331,677.3428 535.0483,677.84606 535.73123,677.84206zM536.6788,692.42236C536.13798,693.29123 537.35938,692.66839 536.6788,692.42236zM537.43944,695.70517L538.05436,695.47893L537.43944,695.70517zM536.44091,696.27742C537.30957,697.90711 537.37984,695.05724 536.44091,696.27742zM536.9461,699.77813C538.39458,699.95366 536.58486,698.66974 536.9461,699.77813zM537.76199,700.72895C540.02662,701.38266 536.62734,698.4096 537.76199,700.72895zM538.54112,701.26581L538.80596,701.43391L538.54112,701.26581zM537.92077,702.0783C537.39777,703.81919 538.95292,702.62411 537.92077,702.0783zM535.46653,769.6886C534.80251,769.14095 535.62881,770.4322 535.46653,769.6886zM520.66207,770.96652C519.21039,770.29609 520.17878,771.95253 520.66207,770.96652zM517.1182,770.81834C516.57905,769.70638 516.50531,771.92772 517.1182,770.81834zM516.3893,770.91164C514.67512,771.61003 517.16116,772.82424 516.3893,770.91164zM494.94504,768.93892L494.62185,769.00462L494.94504,768.93892zM486.5032,767.2431C484.95868,767.10939 488.95453,768.13916 486.5032,767.2431zM469.47425,761.42198C468.96649,759.77723 468.38646,762.11964 469.47425,761.42198zM468.38845,756.79813L468.33835,756.83813L468.38845,756.79813zM463.5583,690.53147C463.17829,689.53464 463.2648,692.30225 463.5583,690.53147zM463.4496,690.24444C464.28895,690.04002 463.12245,689.62261 463.4496,690.24444zM463.95255,683.29456C464.25121,683.56271 463.95155,682.8999 463.95255,683.29456zM463.57822,674.54765C462.34205,673.73994 462.46949,675.92709 463.57822,674.54765zM525.38093,651.15004L525.46733,651.18524L525.38093,651.15004zM518.5094,650.63389C520.156,649.83909 518.89905,651.79993 518.5094,650.63389zM527.62231,656.83323C528.43642,656.70855 527.47059,657.58756 527.62231,656.83323zM528.11937,656.90443C529.04324,656.79622 527.63539,657.67443 528.11937,656.90443zM466.88891,655.20792C467.07301,655.82862 466.24639,655.01047 466.88891,655.20792zM534.62297,665.95985C536.20529,666.63294 533.22183,667.03987 534.62297,665.95985zM533.87133,674.10007C534.44183,675.17022 532.44631,673.19538 533.87133,674.10007zM462.91087,671.90619C466.23432,673.34279 460.58142,671.77477 462.91087,671.90619zM463.5878,678.97212C464.33163,679.86716 462.61652,679.03192 463.5878,678.97212zM535.72125,692.05642C535.44653,692.3998 535.15084,691.3691 535.72125,692.05642zM538.73627,708.19516C541.13641,708.97248 537.54517,710.1817 538.73627,708.19516zM466.33328,715.89168L466.55445,715.96138L466.33328,715.89168zM468.81489,755.87506C469.52438,756.13048 468.16004,756.57677 468.81489,755.87506zM476.07637,760.54466C476.87432,761.56523 474.91276,761.08619 476.07637,760.54466zM528.49606,767.48872C529.91718,767.97262 528.16148,769.22245 528.49606,767.48872zM531.39264,768.0366C533.13897,770.73933 528.15882,767.34624 531.39264,768.0366zM534.88361,768.72917C535.0558,769.69871 533.84815,768.36455 534.88361,768.72917zM527.56602,768.3742C528.06118,768.84636 526.58163,768.17097 527.56602,768.3742zM531.35796,769.21021C531.49791,769.5489 530.95097,769.11771 531.35796,769.21021zM528.32992,769.57298C529.56576,770.55117 527.17332,769.58388 528.32992,769.57298zM478.67429,765.80458C479.70465,765.4758 478.55606,766.42005 478.67429,765.80458zM473.96915,765.44655C474.97502,766.50965 472.07121,765.15383 473.96915,765.44655z"/>
  <path id="imagebot_27" transform="translate(0 7.8125) matrix(1.05855 0 0 1.05855 57.095 -397.136)" label="Capa 1" fill="#b5c1c1" fill-rule="nonzero" stroke-width="8" stroke-linejoin="round" stroke-miterlimit="4" stroke-dashoffset="0" d="M534.98208,709.1307C524.2959,710.49863 513.77758,705.55082 503.17279,706.75235C493.1332,708.95933 482.6515,710.24052 472.65998,707.13334C459.64631,708.87861 446.59467,706.86705 433.58983,708.67146C424.1154,710.12898 414.54064,707.12932 405.2255,708.45698C399.3391,713.76787 400.49963,724.04923 400.19024,732.01803C399.4121,737.74272 401.07506,744.93198 400.4469,745.41229C400.66821,750.89061 398.52025,757.93214 400.72715,761.7654C396.33295,770.29397 401.28038,777.25384 408.85899,773.92959C418.30851,773.91699 427.91516,777.38133 437.29961,774.12852C447.90474,776.15272 458.6775,774.58776 469.3156,773.66949C473.3426,773.41118 481.27283,772.46027 479.62909,774.0867C490.60431,776.64458 501.26505,770.2597 512.25001,771.42613C519.69198,770.22564 525.1105,775.79261 533.0302,773.06245C540.31429,776.07367 549.39804,768.50336 557.11893,774.17547C564.24055,770.89519 572.38583,774.79943 580.68469,775.19398C589.13306,774.51308 597.69417,773.48746 605.89415,777.37738C615.92842,781.57777 613.43636,765.92748 613.90585,759.26753C613.81165,751.18342 612.55869,743.29008 613.7884,736.44441C614.10506,728.53515 617.06792,719.22167 613.08539,711.61734C604.64499,710.81576 596.13543,712.25469 587.71185,711.67064C580.58679,712.31888 573.77307,709.05465 566.97219,709.54939C551.83217,711.57794 551.07622,702.83521 534.98208,709.13068L534.98208,709.1307zM569.21503,719.99267C576.56291,721.46747 581.71846,722.53601 589.31518,720.56572C594.61675,722.10393 609.98522,717.48239 605.71018,729.30838C605.97121,738.89006 603.67202,747.08603 603.85272,756.78584C602.13654,761.04135 607.79392,768.05078 600.81906,763.51739C597.57844,762.7033 590.3617,762.51771 595.34156,757.71654C590.60524,751.24797 593.70026,732.68299 592.74619,723.75142C594.15767,716.20883 582.90204,711.39684 585.18754,722.58217C589.8193,730.8869 585.34666,747.42459 587.34667,755.92276C584.70699,759.63673 590.45114,762.48912 584.28381,763.65286C577.0995,764.28455 565.9182,762.04084 569.66761,749.89398C573.17341,743.07776 568.25585,737.89719 569.0646,729.51841C569.0119,726.34225 569.1377,723.1672 569.21513,719.99267zM516.06298,719.67913C521.46341,719.50935 511.93401,728.20398 516.04838,733.29647C518.59786,741.41871 518.80705,750.59033 517.04599,759.04492C512.27648,762.30613 503.87303,756.90204 498.22463,761.67531C501.70377,756.53863 498.83661,751.70051 500.1324,745.77193C499.98644,737.72007 499.19004,727.50311 499.87313,720.88699C505.077,718.78768 510.71321,720.40856 516.06261,719.67909zM534.14917,720.03744C541.53547,718.19509 540.00806,730.19326 541.28527,736.02444C540.77543,739.94012 539.9485,746.72684 541.44108,745.77897C541.60904,749.46382 541.99801,754.29908 541.13339,759.87401C536.25412,761.60973 525.48107,764.45545 523.53534,758.32835C523.85841,749.91877 523.41985,741.06157 523.26659,732.09469C517.04322,719.84067 527.43772,720.6254 534.14917,720.03744zM540.56935,746.01937C540.42155,746.99999 540.47295,746.65523 540.56935,746.01937zM562.92115,721.50378C561.2401,730.74 565.20856,740.11624 565.12135,749.00224C563.66673,755.75557 564.86763,764.08006 556.68264,762.03719C553.13735,763.78482 553.18645,765.85554 550.51659,762.21264C548.35172,762.55512 541.93243,763.9798 546.89281,761.47863C547.1983,752.10783 548.47986,742.61417 546.55595,733.18911C546.64115,727.63116 544.2612,718.90024 551.33551,722.47825C555.18827,722.02091 559.04545,721.46539 562.92115,721.50378zM409.94873,720.04138C416.83622,720.24714 425.1298,721.48026 424.34068,732.23933C420.91931,737.97517 419.78839,750.1904 423.50719,756.96796C423.00917,760.58345 411.33811,765.78442 409.18648,757.63512C407.21269,753.43782 410.76108,743.04873 408.06065,742.55506C412.80841,740.03803 405.69332,729.76849 411.29866,726.9929C411.33346,724.60124 410.8669,722.15168 409.94873,720.04138zM492.85193,721.26439C494.16467,728.38831 493.12847,736.48259 493.47828,742.83118C496.19825,745.82773 491.42541,763.58794 488.07382,763.53046C484.52859,764.21086 477.92773,761.49049 476.11177,760.80215C474.44746,751.38671 476.03677,742.08842 476.61045,732.5361C475.21994,726.20765 474.93979,719.8897 482.03515,722.94109C485.93041,724.35585 489.24783,722.60786 492.85193,721.26439zM492.35995,762.13754C491.78716,761.3196 491.88279,761.45613 492.35995,762.13754zM491.88718,761.46233C491.46058,760.52386 491.53389,760.68519 491.88718,761.46233zM494.44901,744.98695C491.15097,743.03148 493.87883,746.68875 494.44901,744.98695zM437.39955,720.90517C446.73015,718.38434 449.52672,730.75201 444.68493,738.53822C447.41774,746.29069 446.75454,754.01495 445.45634,761.17641C449.04563,765.03608 455.09716,759.95914 451.14382,756.54173C455.00055,754.59066 450.00227,744.58866 452.6813,739.04561C451.59565,731.23819 450.41052,719.77699 459.59228,721.91333C463.09111,718.97334 469.89022,724.7279 469.04575,723.08643C469.74941,724.22566 467.88393,737.39195 468.48767,743.13389C468.58337,748.33447 468.18207,756.53291 469.81844,758.09234C470.50055,767.64145 465.42859,758.64435 461.82348,761.81881C467.21537,766.98221 455.92166,760.57447 452.87682,762.66478C445.54247,761.71971 438.98275,759.79936 431.73887,761.9558C425.93456,761.61585 429.65684,756.03727 427.93916,752.14653C431.28209,742.29335 426.81417,730.33191 430.23584,721.23899C432.5457,720.20658 435.02605,721.35297 437.39955,720.90515zM427.35412,760.79726C428.25754,761.23578 427.00845,761.45501 427.35412,760.79726z"/>
  <path id="imagebot_29" transform="translate(-27.3438 -1.95313) matrix(1.05855 0 0 1.05855 592.252 -406.902)" label="Capa 1" fill="#ff7f2a" fill-rule="evenodd" stroke-width="1px" d="M220.77451,820.80336C230.25654,816.95788 240.72114,818.32872 250.636,818.79071C260.89377,818.49068 271.16739,816.2019 281.40835,818.03665C287.412,818.50641 294.39141,817.05349 299.32738,821.37236C300.53275,830.7116 298.14314,840.11867 299.69316,849.46323C300.85285,858.9634 301.48416,868.51681 302.36534,878.0348C303.74137,885.84988 305.88683,893.86659 303.85667,901.77973C302.88595,911.96376 306.62999,921.85895 306.2872,932.04126C308.09326,938.97665 302.71206,943.62715 296.12668,943.5053C289.0514,945.8987 282.19406,949.02851 274.50093,948.07385C268.34496,948.20078 262.44798,950.57406 256.22659,950.0628C249.33694,950.17571 242.33578,948.81188 235.54757,950.16518C230.53721,952.45965 222.41674,951.96033 222.27785,944.97871C220.92248,938.46637 219.91202,931.74379 219.72491,925.14188C221.62081,918.02384 222.737,910.54919 221.44367,903.23798C221.75255,894.47395 222.72454,885.56532 220.73469,876.93442C220.85575,868.67054 222.97658,860.34704 220.96436,852.14201C219.27811,845.1437 220.7206,837.82118 218.75386,830.93753C217.84555,827.50005 217.47375,823.14378 220.77451,820.80336zM220.64581,847.9555C220.10332,847.995 220.29946,847.9807 220.64581,847.9555zM219.82333,927.90796C220.38552,929.48563 218.12661,927.50261 219.82333,927.90796zM220.60978,931.64872C220.10776,932.26586 220.55538,931.1048 220.60978,931.64872zM220.30684,931.62712C218.54228,932.72332 220.6372,930.4491 220.30684,931.62712zM220.27094,931.65822L219.96871,931.63622L220.27094,931.65822zM219.95946,931.62742L219.61112,931.51163L219.95946,931.62742zM220.21797,931.70772L220.26197,931.71812L220.21797,931.70772zM220.26197,931.71812L220.50242,931.74442L220.26197,931.71812zM220.20897,932.51952C219.38313,931.95463 221.10815,932.1733 220.20897,932.51952zM222.00335,942.71806C221.45354,942.29355 222.78538,942.27869 222.00335,942.71806zM221.97575,942.35328C221.81643,941.69253 222.85269,942.31078 221.97575,942.35328zM222.64217,943.84881C223.20828,943.90991 222.09399,944.21791 222.64217,943.84881zM236.87141,949.74539C237.3739,949.68769 236.47978,950.26506 236.87141,949.74539zM240.54739,949.37447C240.39468,949.83227 240.25018,948.86406 240.54739,949.37447zM240.46979,949.49645C242.09202,949.68038 239.58194,950.42322 240.46979,949.49645zM241.6567,949.64972C243.07911,949.94499 241.06722,950.00484 241.6567,949.64972zM294.6817,943.00963C296.11951,942.89516 293.97568,944.35539 294.6817,943.00963zM296.4526,943.02443C297.38939,943.46249 295.44688,943.61136 296.4526,943.02443zM296.89808,942.89872L297.00147,942.94172L296.89808,942.89872zM303.51535,908.94342C302.28965,908.7369 304.52887,908.18482 303.51535,908.94342zM299.39455,826.62882C299.8817,826.04975 299.64826,827.10458 299.39455,826.62882zM299.65135,826.70152C300.09973,826.95644 299.98279,826.88995 299.65135,826.70152zM299.72455,826.68532C298.11888,826.21989 300.86039,825.94534 299.72455,826.68532zM299.76055,825.09949C298.01946,824.53597 301.42258,824.48803 299.76055,825.09949zM299.56418,824.43023C298.86001,825.80978 299.45959,823.88682 299.56418,824.43023zM299.57418,822.59933C300.01581,822.52643 299.35802,823.25702 299.57418,822.59933zM225.09927,819.14957C224.64138,818.9929 225.52337,818.77375 225.09927,819.14957zM224.9313,819.03404L224.9025,819.1407L224.9313,819.03404zM223.60088,827.8982C224.56768,829.40724 224.60231,826.07054 223.60088,827.8982zM227.26854,826.6256L227.32294,826.83332L227.26854,826.6256zM227.25954,826.89782C226.62588,827.30394 227.79779,827.04916 227.25954,826.89782zM227.34384,826.86672C227.4876,827.34981 227.68757,826.34277 227.34384,826.86672zM226.66846,827.45709C227.50692,828.3916 227.40595,826.53959 226.66846,827.45709zM227.00236,827.28502C229.14713,824.94838 227.23148,828.22983 227.00236,827.28502zM229.05637,827.19002C228.62977,830.26493 229.47853,829.89209 229.05637,827.19002zM299.03863,820.96133C297.6439,821.21854 300.38771,821.75479 299.03863,820.96133zM221.42227,877.28996C221.01776,877.8992 221.9785,877.33986 221.42227,877.28996zM220.11331,928.21337C219.61591,928.70237 220.90101,928.24097 220.11331,928.21337z"/>
  <path id="imagebot_30" transform="translate(31.25 3.90625) matrix(1.05855 0 0 1.05855 -153.842 -412.761)" label="Capa 1" fill="#ff7f2a" fill-rule="evenodd" stroke-width="1px" d="M220.77451,820.80336C230.25654,816.95788 240.72114,818.32872 250.636,818.79071C260.89377,818.49068 271.16739,816.2019 281.40835,818.03665C287.412,818.50641 294.39141,817.05349 299.32738,821.37236C300.53275,830.7116 298.14314,840.11867 299.69316,849.46323C300.85285,858.9634 301.48416,868.51681 302.36534,878.0348C303.74137,885.84988 305.88683,893.86659 303.85667,901.77973C302.88595,911.96376 306.62999,921.85895 306.2872,932.04126C308.09326,938.97665 302.71206,943.62715 296.12668,943.5053C289.0514,945.8987 282.19406,949.02851 274.50093,948.07385C268.34496,948.20078 262.44798,950.57406 256.22659,950.0628C249.33694,950.17571 242.33578,948.81188 235.54757,950.16518C230.53721,952.45965 222.41674,951.96033 222.27785,944.97871C220.92248,938.46637 219.91202,931.74379 219.72491,925.14188C221.62081,918.02384 222.737,910.54919 221.44367,903.23798C221.75255,894.47395 222.72454,885.56532 220.73469,876.93442C220.85575,868.67054 222.97658,860.34704 220.96436,852.14201C219.27811,845.1437 220.7206,837.82118 218.75386,830.93753C217.84555,827.50005 217.47375,823.14378 220.77451,820.80336zM220.64581,847.9555C220.10332,847.995 220.29946,847.9807 220.64581,847.9555zM219.82333,927.90796C220.38552,929.48563 218.12661,927.50261 219.82333,927.90796zM220.60978,931.64872C220.10776,932.26586 220.55538,931.1048 220.60978,931.64872zM220.30684,931.62712C218.54228,932.72332 220.6372,930.4491 220.30684,931.62712zM220.27094,931.65822L219.96871,931.63622L220.27094,931.65822zM219.95946,931.62742L219.61112,931.51163L219.95946,931.62742zM220.21797,931.70772L220.26197,931.71812L220.21797,931.70772zM220.26197,931.71812L220.50242,931.74442L220.26197,931.71812zM220.20897,932.51952C219.38313,931.95463 221.10815,932.1733 220.20897,932.51952zM222.00335,942.71806C221.45354,942.29355 222.78538,942.27869 222.00335,942.71806zM221.97575,942.35328C221.81643,941.69253 222.85269,942.31078 221.97575,942.35328zM222.64217,943.84881C223.20828,943.90991 222.09399,944.21791 222.64217,943.84881zM236.87141,949.74539C237.3739,949.68769 236.47978,950.26506 236.87141,949.74539zM240.54739,949.37447C240.39468,949.83227 240.25018,948.86406 240.54739,949.37447zM240.46979,949.49645C242.09202,949.68038 239.58194,950.42322 240.46979,949.49645zM241.6567,949.64972C243.07911,949.94499 241.06722,950.00484 241.6567,949.64972zM294.6817,943.00963C296.11951,942.89516 293.97568,944.35539 294.6817,943.00963zM296.4526,943.02443C297.38939,943.46249 295.44688,943.61136 296.4526,943.02443zM296.89808,942.89872L297.00147,942.94172L296.89808,942.89872zM303.51535,908.94342C302.28965,908.7369 304.52887,908.18482 303.51535,908.94342zM299.39455,826.62882C299.8817,826.04975 299.64826,827.10458 299.39455,826.62882zM299.65135,826.70152C300.09973,826.95644 299.98279,826.88995 299.65135,826.70152zM299.72455,826.68532C298.11888,826.21989 300.86039,825.94534 299.72455,826.68532zM299.76055,825.09949C298.01946,824.53597 301.42258,824.48803 299.76055,825.09949zM299.56418,824.43023C298.86001,825.80978 299.45959,823.88682 299.56418,824.43023zM299.57418,822.59933C300.01581,822.52643 299.35802,823.25702 299.57418,822.59933zM225.09927,819.14957C224.64138,818.9929 225.52337,818.77375 225.09927,819.14957zM224.9313,819.03404L224.9025,819.1407L224.9313,819.03404zM223.60088,827.8982C224.56768,829.40724 224.60231,826.07054 223.60088,827.8982zM227.26854,826.6256L227.32294,826.83332L227.26854,826.6256zM227.25954,826.89782C226.62588,827.30394 227.79779,827.04916 227.25954,826.89782zM227.34384,826.86672C227.4876,827.34981 227.68757,826.34277 227.34384,826.86672zM226.66846,827.45709C227.50692,828.3916 227.40595,826.53959 226.66846,827.45709zM227.00236,827.28502C229.14713,824.94838 227.23148,828.22983 227.00236,827.28502zM229.05637,827.19002C228.62977,830.26493 229.47853,829.89209 229.05637,827.19002zM299.03863,820.96133C297.6439,821.21854 300.38771,821.75479 299.03863,820.96133zM221.42227,877.28996C221.01776,877.8992 221.9785,877.33986 221.42227,877.28996zM220.11331,928.21337C219.61591,928.70237 220.90101,928.24097 220.11331,928.21337z"/>
  <path id="imagebot_31" transform="translate(0 7.8125) matrix(1.05855 0 0 1.05855 57.095 -397.136)" label="Capa 1" fill="#b5c1c1" fill-rule="nonzero" stroke-width="8" stroke-linejoin="round" stroke-miterlimit="4" stroke-dashoffset="0" d="M534.98208,709.1307C524.2959,710.49863 513.77758,705.55082 503.17279,706.75235C493.1332,708.95933 482.6515,710.24052 472.65998,707.13334C459.64631,708.87861 446.59467,706.86705 433.58983,708.67146C424.1154,710.12898 414.54064,707.12932 405.2255,708.45698C399.3391,713.76787 400.49963,724.04923 400.19024,732.01803C399.4121,737.74272 401.07506,744.93198 400.4469,745.41229C400.66821,750.89061 398.52025,757.93214 400.72715,761.7654C396.33295,770.29397 401.28038,777.25384 408.85899,773.92959C418.30851,773.91699 427.91516,777.38133 437.29961,774.12852C447.90474,776.15272 458.6775,774.58776 469.3156,773.66949C473.3426,773.41118 481.27283,772.46027 479.62909,774.0867C490.60431,776.64458 501.26505,770.2597 512.25001,771.42613C519.69198,770.22564 525.1105,775.79261 533.0302,773.06245C540.31429,776.07367 549.39804,768.50336 557.11893,774.17547C564.24055,770.89519 572.38583,774.79943 580.68469,775.19398C589.13306,774.51308 597.69417,773.48746 605.89415,777.37738C615.92842,781.57777 613.43636,765.92748 613.90585,759.26753C613.81165,751.18342 612.55869,743.29008 613.7884,736.44441C614.10506,728.53515 617.06792,719.22167 613.08539,711.61734C604.64499,710.81576 596.13543,712.25469 587.71185,711.67064C580.58679,712.31888 573.77307,709.05465 566.97219,709.54939C551.83217,711.57794 551.07622,702.83521 534.98208,709.13068L534.98208,709.1307zM569.21503,719.99267C576.56291,721.46747 581.71846,722.53601 589.31518,720.56572C594.61675,722.10393 609.98522,717.48239 605.71018,729.30838C605.97121,738.89006 603.67202,747.08603 603.85272,756.78584C602.13654,761.04135 607.79392,768.05078 600.81906,763.51739C597.57844,762.7033 590.3617,762.51771 595.34156,757.71654C590.60524,751.24797 593.70026,732.68299 592.74619,723.75142C594.15767,716.20883 582.90204,711.39684 585.18754,722.58217C589.8193,730.8869 585.34666,747.42459 587.34667,755.92276C584.70699,759.63673 590.45114,762.48912 584.28381,763.65286C577.0995,764.28455 565.9182,762.04084 569.66761,749.89398C573.17341,743.07776 568.25585,737.89719 569.0646,729.51841C569.0119,726.34225 569.1377,723.1672 569.21513,719.99267zM516.06298,719.67913C521.46341,719.50935 511.93401,728.20398 516.04838,733.29647C518.59786,741.41871 518.80705,750.59033 517.04599,759.04492C512.27648,762.30613 503.87303,756.90204 498.22463,761.67531C501.70377,756.53863 498.83661,751.70051 500.1324,745.77193C499.98644,737.72007 499.19004,727.50311 499.87313,720.88699C505.077,718.78768 510.71321,720.40856 516.06261,719.67909zM534.14917,720.03744C541.53547,718.19509 540.00806,730.19326 541.28527,736.02444C540.77543,739.94012 539.9485,746.72684 541.44108,745.77897C541.60904,749.46382 541.99801,754.29908 541.13339,759.87401C536.25412,761.60973 525.48107,764.45545 523.53534,758.32835C523.85841,749.91877 523.41985,741.06157 523.26659,732.09469C517.04322,719.84067 527.43772,720.6254 534.14917,720.03744zM540.56935,746.01937C540.42155,746.99999 540.47295,746.65523 540.56935,746.01937zM562.92115,721.50378C561.2401,730.74 565.20856,740.11624 565.12135,749.00224C563.66673,755.75557 564.86763,764.08006 556.68264,762.03719C553.13735,763.78482 553.18645,765.85554 550.51659,762.21264C548.35172,762.55512 541.93243,763.9798 546.89281,761.47863C547.1983,752.10783 548.47986,742.61417 546.55595,733.18911C546.64115,727.63116 544.2612,718.90024 551.33551,722.47825C555.18827,722.02091 559.04545,721.46539 562.92115,721.50378zM409.94873,720.04138C416.83622,720.24714 425.1298,721.48026 424.34068,732.23933C420.91931,737.97517 419.78839,750.1904 423.50719,756.96796C423.00917,760.58345 411.33811,765.78442 409.18648,757.63512C407.21269,753.43782 410.76108,743.04873 408.06065,742.55506C412.80841,740.03803 405.69332,729.76849 411.29866,726.9929C411.33346,724.60124 410.8669,722.15168 409.94873,720.04138zM492.85193,721.26439C494.16467,728.38831 493.12847,736.48259 493.47828,742.83118C496.19825,745.82773 491.42541,763.58794 488.07382,763.53046C484.52859,764.21086 477.92773,761.49049 476.11177,760.80215C474.44746,751.38671 476.03677,742.08842 476.61045,732.5361C475.21994,726.20765 474.93979,719.8897 482.03515,722.94109C485.93041,724.35585 489.24783,722.60786 492.85193,721.26439zM492.35995,762.13754C491.78716,761.3196 491.88279,761.45613 492.35995,762.13754zM491.88718,761.46233C491.46058,760.52386 491.53389,760.68519 491.88718,761.46233zM494.44901,744.98695C491.15097,743.03148 493.87883,746.68875 494.44901,744.98695zM437.39955,720.90517C446.73015,718.38434 449.52672,730.75201 444.68493,738.53822C447.41774,746.29069 446.75454,754.01495 445.45634,761.17641C449.04563,765.03608 455.09716,759.95914 451.14382,756.54173C455.00055,754.59066 450.00227,744.58866 452.6813,739.04561C451.59565,731.23819 450.41052,719.77699 459.59228,721.91333C463.09111,718.97334 469.89022,724.7279 469.04575,723.08643C469.74941,724.22566 467.88393,737.39195 468.48767,743.13389C468.58337,748.33447 468.18207,756.53291 469.81844,758.09234C470.50055,767.64145 465.42859,758.64435 461.82348,761.81881C467.21537,766.98221 455.92166,760.57447 452.87682,762.66478C445.54247,761.71971 438.98275,759.79936 431.73887,761.9558C425.93456,761.61585 429.65684,756.03727 427.93916,752.14653C431.28209,742.29335 426.81417,730.33191 430.23584,721.23899C432.5457,720.20658 435.02605,721.35297 437.39955,720.90515zM427.35412,760.79726C428.25754,761.23578 427.00845,761.45501 427.35412,760.79726z"/>
  <path id="imagebot_32" transform="translate(-11.7188 -1.95313) matrix(1.05855 0 0 1.05855 -122.592 -219.402)" label="Capa 1" fill="#b5c1c1" fill-rule="nonzero" stroke-width="8" stroke-linejoin="round" stroke-miterlimit="4" stroke-dashoffset="0" d="M534.98208,709.1307C524.2959,710.49863 513.77758,705.55082 503.17279,706.75235C493.1332,708.95933 482.6515,710.24052 472.65998,707.13334C459.64631,708.87861 446.59467,706.86705 433.58983,708.67146C424.1154,710.12898 414.54064,707.12932 405.2255,708.45698C399.3391,713.76787 400.49963,724.04923 400.19024,732.01803C399.4121,737.74272 401.07506,744.93198 400.4469,745.41229C400.66821,750.89061 398.52025,757.93214 400.72715,761.7654C396.33295,770.29397 401.28038,777.25384 408.85899,773.92959C418.30851,773.91699 427.91516,777.38133 437.29961,774.12852C447.90474,776.15272 458.6775,774.58776 469.3156,773.66949C473.3426,773.41118 481.27283,772.46027 479.62909,774.0867C490.60431,776.64458 501.26505,770.2597 512.25001,771.42613C519.69198,770.22564 525.1105,775.79261 533.0302,773.06245C540.31429,776.07367 549.39804,768.50336 557.11893,774.17547C564.24055,770.89519 572.38583,774.79943 580.68469,775.19398C589.13306,774.51308 597.69417,773.48746 605.89415,777.37738C615.92842,781.57777 613.43636,765.92748 613.90585,759.26753C613.81165,751.18342 612.55869,743.29008 613.7884,736.44441C614.10506,728.53515 617.06792,719.22167 613.08539,711.61734C604.64499,710.81576 596.13543,712.25469 587.71185,711.67064C580.58679,712.31888 573.77307,709.05465 566.97219,709.54939C551.83217,711.57794 551.07622,702.83521 534.98208,709.13068L534.98208,709.1307zM569.21503,719.99267C576.56291,721.46747 581.71846,722.53601 589.31518,720.56572C594.61675,722.10393 609.98522,717.48239 605.71018,729.30838C605.97121,738.89006 603.67202,747.08603 603.85272,756.78584C602.13654,761.04135 607.79392,768.05078 600.81906,763.51739C597.57844,762.7033 590.3617,762.51771 595.34156,757.71654C590.60524,751.24797 593.70026,732.68299 592.74619,723.75142C594.15767,716.20883 582.90204,711.39684 585.18754,722.58217C589.8193,730.8869 585.34666,747.42459 587.34667,755.92276C584.70699,759.63673 590.45114,762.48912 584.28381,763.65286C577.0995,764.28455 565.9182,762.04084 569.66761,749.89398C573.17341,743.07776 568.25585,737.89719 569.0646,729.51841C569.0119,726.34225 569.1377,723.1672 569.21513,719.99267zM516.06298,719.67913C521.46341,719.50935 511.93401,728.20398 516.04838,733.29647C518.59786,741.41871 518.80705,750.59033 517.04599,759.04492C512.27648,762.30613 503.87303,756.90204 498.22463,761.67531C501.70377,756.53863 498.83661,751.70051 500.1324,745.77193C499.98644,737.72007 499.19004,727.50311 499.87313,720.88699C505.077,718.78768 510.71321,720.40856 516.06261,719.67909zM534.14917,720.03744C541.53547,718.19509 540.00806,730.19326 541.28527,736.02444C540.77543,739.94012 539.9485,746.72684 541.44108,745.77897C541.60904,749.46382 541.99801,754.29908 541.13339,759.87401C536.25412,761.60973 525.48107,764.45545 523.53534,758.32835C523.85841,749.91877 523.41985,741.06157 523.26659,732.09469C517.04322,719.84067 527.43772,720.6254 534.14917,720.03744zM540.56935,746.01937C540.42155,746.99999 540.47295,746.65523 540.56935,746.01937zM562.92115,721.50378C561.2401,730.74 565.20856,740.11624 565.12135,749.00224C563.66673,755.75557 564.86763,764.08006 556.68264,762.03719C553.13735,763.78482 553.18645,765.85554 550.51659,762.21264C548.35172,762.55512 541.93243,763.9798 546.89281,761.47863C547.1983,752.10783 548.47986,742.61417 546.55595,733.18911C546.64115,727.63116 544.2612,718.90024 551.33551,722.47825C555.18827,722.02091 559.04545,721.46539 562.92115,721.50378zM409.94873,720.04138C416.83622,720.24714 425.1298,721.48026 424.34068,732.23933C420.91931,737.97517 419.78839,750.1904 423.50719,756.96796C423.00917,760.58345 411.33811,765.78442 409.18648,757.63512C407.21269,753.43782 410.76108,743.04873 408.06065,742.55506C412.80841,740.03803 405.69332,729.76849 411.29866,726.9929C411.33346,724.60124 410.8669,722.15168 409.94873,720.04138zM492.85193,721.26439C494.16467,728.38831 493.12847,736.48259 493.47828,742.83118C496.19825,745.82773 491.42541,763.58794 488.07382,763.53046C484.52859,764.21086 477.92773,761.49049 476.11177,760.80215C474.44746,751.38671 476.03677,742.08842 476.61045,732.5361C475.21994,726.20765 474.93979,719.8897 482.03515,722.94109C485.93041,724.35585 489.24783,722.60786 492.85193,721.26439zM492.35995,762.13754C491.78716,761.3196 491.88279,761.45613 492.35995,762.13754zM491.88718,761.46233C491.46058,760.52386 491.53389,760.68519 491.88718,761.46233zM494.44901,744.98695C491.15097,743.03148 493.87883,746.68875 494.44901,744.98695zM437.39955,720.90517C446.73015,718.38434 449.52672,730.75201 444.68493,738.53822C447.41774,746.29069 446.75454,754.01495 445.45634,761.17641C449.04563,765.03608 455.09716,759.95914 451.14382,756.54173C455.00055,754.59066 450.00227,744.58866 452.6813,739.04561C451.59565,731.23819 450.41052,719.77699 459.59228,721.91333C463.09111,718.97334 469.89022,724.7279 469.04575,723.08643C469.74941,724.22566 467.88393,737.39195 468.48767,743.13389C468.58337,748.33447 468.18207,756.53291 469.81844,758.09234C470.50055,767.64145 465.42859,758.64435 461.82348,761.81881C467.21537,766.98221 455.92166,760.57447 452.87682,762.66478C445.54247,761.71971 438.98275,759.79936 431.73887,761.9558C425.93456,761.61585 429.65684,756.03727 427.93916,752.14653C431.28209,742.29335 426.81417,730.33191 430.23584,721.23899C432.5457,720.20658 435.02605,721.35297 437.39955,720.90515zM427.35412,760.79726C428.25754,761.23578 427.00845,761.45501 427.35412,760.79726z"/>
  <path id="imagebot_33" transform="translate(-15.625 0) matrix(1.05855 0 0 1.05855 88.345 -203.777)" label="Capa 1" fill="#b5c1c1" fill-rule="nonzero" stroke-width="8" stroke-linejoin="round" stroke-miterlimit="4" stroke-dashoffset="0" d="M534.98208,709.1307C524.2959,710.49863 513.77758,705.55082 503.17279,706.75235C493.1332,708.95933 482.6515,710.24052 472.65998,707.13334C459.64631,708.87861 446.59467,706.86705 433.58983,708.67146C424.1154,710.12898 414.54064,707.12932 405.2255,708.45698C399.3391,713.76787 400.49963,724.04923 400.19024,732.01803C399.4121,737.74272 401.07506,744.93198 400.4469,745.41229C400.66821,750.89061 398.52025,757.93214 400.72715,761.7654C396.33295,770.29397 401.28038,777.25384 408.85899,773.92959C418.30851,773.91699 427.91516,777.38133 437.29961,774.12852C447.90474,776.15272 458.6775,774.58776 469.3156,773.66949C473.3426,773.41118 481.27283,772.46027 479.62909,774.0867C490.60431,776.64458 501.26505,770.2597 512.25001,771.42613C519.69198,770.22564 525.1105,775.79261 533.0302,773.06245C540.31429,776.07367 549.39804,768.50336 557.11893,774.17547C564.24055,770.89519 572.38583,774.79943 580.68469,775.19398C589.13306,774.51308 597.69417,773.48746 605.89415,777.37738C615.92842,781.57777 613.43636,765.92748 613.90585,759.26753C613.81165,751.18342 612.55869,743.29008 613.7884,736.44441C614.10506,728.53515 617.06792,719.22167 613.08539,711.61734C604.64499,710.81576 596.13543,712.25469 587.71185,711.67064C580.58679,712.31888 573.77307,709.05465 566.97219,709.54939C551.83217,711.57794 551.07622,702.83521 534.98208,709.13068L534.98208,709.1307zM569.21503,719.99267C576.56291,721.46747 581.71846,722.53601 589.31518,720.56572C594.61675,722.10393 609.98522,717.48239 605.71018,729.30838C605.97121,738.89006 603.67202,747.08603 603.85272,756.78584C602.13654,761.04135 607.79392,768.05078 600.81906,763.51739C597.57844,762.7033 590.3617,762.51771 595.34156,757.71654C590.60524,751.24797 593.70026,732.68299 592.74619,723.75142C594.15767,716.20883 582.90204,711.39684 585.18754,722.58217C589.8193,730.8869 585.34666,747.42459 587.34667,755.92276C584.70699,759.63673 590.45114,762.48912 584.28381,763.65286C577.0995,764.28455 565.9182,762.04084 569.66761,749.89398C573.17341,743.07776 568.25585,737.89719 569.0646,729.51841C569.0119,726.34225 569.1377,723.1672 569.21513,719.99267zM516.06298,719.67913C521.46341,719.50935 511.93401,728.20398 516.04838,733.29647C518.59786,741.41871 518.80705,750.59033 517.04599,759.04492C512.27648,762.30613 503.87303,756.90204 498.22463,761.67531C501.70377,756.53863 498.83661,751.70051 500.1324,745.77193C499.98644,737.72007 499.19004,727.50311 499.87313,720.88699C505.077,718.78768 510.71321,720.40856 516.06261,719.67909zM534.14917,720.03744C541.53547,718.19509 540.00806,730.19326 541.28527,736.02444C540.77543,739.94012 539.9485,746.72684 541.44108,745.77897C541.60904,749.46382 541.99801,754.29908 541.13339,759.87401C536.25412,761.60973 525.48107,764.45545 523.53534,758.32835C523.85841,749.91877 523.41985,741.06157 523.26659,732.09469C517.04322,719.84067 527.43772,720.6254 534.14917,720.03744zM540.56935,746.01937C540.42155,746.99999 540.47295,746.65523 540.56935,746.01937zM562.92115,721.50378C561.2401,730.74 565.20856,740.11624 565.12135,749.00224C563.66673,755.75557 564.86763,764.08006 556.68264,762.03719C553.13735,763.78482 553.18645,765.85554 550.51659,762.21264C548.35172,762.55512 541.93243,763.9798 546.89281,761.47863C547.1983,752.10783 548.47986,742.61417 546.55595,733.18911C546.64115,727.63116 544.2612,718.90024 551.33551,722.47825C555.18827,722.02091 559.04545,721.46539 562.92115,721.50378zM409.94873,720.04138C416.83622,720.24714 425.1298,721.48026 424.34068,732.23933C420.91931,737.97517 419.78839,750.1904 423.50719,756.96796C423.00917,760.58345 411.33811,765.78442 409.18648,757.63512C407.21269,753.43782 410.76108,743.04873 408.06065,742.55506C412.80841,740.03803 405.69332,729.76849 411.29866,726.9929C411.33346,724.60124 410.8669,722.15168 409.94873,720.04138zM492.85193,721.26439C494.16467,728.38831 493.12847,736.48259 493.47828,742.83118C496.19825,745.82773 491.42541,763.58794 488.07382,763.53046C484.52859,764.21086 477.92773,761.49049 476.11177,760.80215C474.44746,751.38671 476.03677,742.08842 476.61045,732.5361C475.21994,726.20765 474.93979,719.8897 482.03515,722.94109C485.93041,724.35585 489.24783,722.60786 492.85193,721.26439zM492.35995,762.13754C491.78716,761.3196 491.88279,761.45613 492.35995,762.13754zM491.88718,761.46233C491.46058,760.52386 491.53389,760.68519 491.88718,761.46233zM494.44901,744.98695C491.15097,743.03148 493.87883,746.68875 494.44901,744.98695zM437.39955,720.90517C446.73015,718.38434 449.52672,730.75201 444.68493,738.53822C447.41774,746.29069 446.75454,754.01495 445.45634,761.17641C449.04563,765.03608 455.09716,759.95914 451.14382,756.54173C455.00055,754.59066 450.00227,744.58866 452.6813,739.04561C451.59565,731.23819 450.41052,719.77699 459.59228,721.91333C463.09111,718.97334 469.89022,724.7279 469.04575,723.08643C469.74941,724.22566 467.88393,737.39195 468.48767,743.13389C468.58337,748.33447 468.18207,756.53291 469.81844,758.09234C470.50055,767.64145 465.42859,758.64435 461.82348,761.81881C467.21537,766.98221 455.92166,760.57447 452.87682,762.66478C445.54247,761.71971 438.98275,759.79936 431.73887,761.9558C425.93456,761.61585 429.65684,756.03727 427.93916,752.14653C431.28209,742.29335 426.81417,730.33191 430.23584,721.23899C432.5457,720.20658 435.02605,721.35297 437.39955,720.90515zM427.35412,760.79726C428.25754,761.23578 427.00845,761.45501 427.35412,760.79726z"/>
  <path id="imagebot_34" transform="translate(-15.625 -3.90625) matrix(1.05855 0 0 1.05855 307.095 -221.355)" label="Capa 1" fill="#b5c1c1" fill-rule="nonzero" stroke-width="8" stroke-linejoin="round" stroke-miterlimit="4" stroke-dashoffset="0" d="M534.98208,709.1307C524.2959,710.49863 513.77758,705.55082 503.17279,706.75235C493.1332,708.95933 482.6515,710.24052 472.65998,707.13334C459.64631,708.87861 446.59467,706.86705 433.58983,708.67146C424.1154,710.12898 414.54064,707.12932 405.2255,708.45698C399.3391,713.76787 400.49963,724.04923 400.19024,732.01803C399.4121,737.74272 401.07506,744.93198 400.4469,745.41229C400.66821,750.89061 398.52025,757.93214 400.72715,761.7654C396.33295,770.29397 401.28038,777.25384 408.85899,773.92959C418.30851,773.91699 427.91516,777.38133 437.29961,774.12852C447.90474,776.15272 458.6775,774.58776 469.3156,773.66949C473.3426,773.41118 481.27283,772.46027 479.62909,774.0867C490.60431,776.64458 501.26505,770.2597 512.25001,771.42613C519.69198,770.22564 525.1105,775.79261 533.0302,773.06245C540.31429,776.07367 549.39804,768.50336 557.11893,774.17547C564.24055,770.89519 572.38583,774.79943 580.68469,775.19398C589.13306,774.51308 597.69417,773.48746 605.89415,777.37738C615.92842,781.57777 613.43636,765.92748 613.90585,759.26753C613.81165,751.18342 612.55869,743.29008 613.7884,736.44441C614.10506,728.53515 617.06792,719.22167 613.08539,711.61734C604.64499,710.81576 596.13543,712.25469 587.71185,711.67064C580.58679,712.31888 573.77307,709.05465 566.97219,709.54939C551.83217,711.57794 551.07622,702.83521 534.98208,709.13068L534.98208,709.1307zM569.21503,719.99267C576.56291,721.46747 581.71846,722.53601 589.31518,720.56572C594.61675,722.10393 609.98522,717.48239 605.71018,729.30838C605.97121,738.89006 603.67202,747.08603 603.85272,756.78584C602.13654,761.04135 607.79392,768.05078 600.81906,763.51739C597.57844,762.7033 590.3617,762.51771 595.34156,757.71654C590.60524,751.24797 593.70026,732.68299 592.74619,723.75142C594.15767,716.20883 582.90204,711.39684 585.18754,722.58217C589.8193,730.8869 585.34666,747.42459 587.34667,755.92276C584.70699,759.63673 590.45114,762.48912 584.28381,763.65286C577.0995,764.28455 565.9182,762.04084 569.66761,749.89398C573.17341,743.07776 568.25585,737.89719 569.0646,729.51841C569.0119,726.34225 569.1377,723.1672 569.21513,719.99267zM516.06298,719.67913C521.46341,719.50935 511.93401,728.20398 516.04838,733.29647C518.59786,741.41871 518.80705,750.59033 517.04599,759.04492C512.27648,762.30613 503.87303,756.90204 498.22463,761.67531C501.70377,756.53863 498.83661,751.70051 500.1324,745.77193C499.98644,737.72007 499.19004,727.50311 499.87313,720.88699C505.077,718.78768 510.71321,720.40856 516.06261,719.67909zM534.14917,720.03744C541.53547,718.19509 540.00806,730.19326 541.28527,736.02444C540.77543,739.94012 539.9485,746.72684 541.44108,745.77897C541.60904,749.46382 541.99801,754.29908 541.13339,759.87401C536.25412,761.60973 525.48107,764.45545 523.53534,758.32835C523.85841,749.91877 523.41985,741.06157 523.26659,732.09469C517.04322,719.84067 527.43772,720.6254 534.14917,720.03744zM540.56935,746.01937C540.42155,746.99999 540.47295,746.65523 540.56935,746.01937zM562.92115,721.50378C561.2401,730.74 565.20856,740.11624 565.12135,749.00224C563.66673,755.75557 564.86763,764.08006 556.68264,762.03719C553.13735,763.78482 553.18645,765.85554 550.51659,762.21264C548.35172,762.55512 541.93243,763.9798 546.89281,761.47863C547.1983,752.10783 548.47986,742.61417 546.55595,733.18911C546.64115,727.63116 544.2612,718.90024 551.33551,722.47825C555.18827,722.02091 559.04545,721.46539 562.92115,721.50378zM409.94873,720.04138C416.83622,720.24714 425.1298,721.48026 424.34068,732.23933C420.91931,737.97517 419.78839,750.1904 423.50719,756.96796C423.00917,760.58345 411.33811,765.78442 409.18648,757.63512C407.21269,753.43782 410.76108,743.04873 408.06065,742.55506C412.80841,740.03803 405.69332,729.76849 411.29866,726.9929C411.33346,724.60124 410.8669,722.15168 409.94873,720.04138zM492.85193,721.26439C494.16467,728.38831 493.12847,736.48259 493.47828,742.83118C496.19825,745.82773 491.42541,763.58794 488.07382,763.53046C484.52859,764.21086 477.92773,761.49049 476.11177,760.80215C474.44746,751.38671 476.03677,742.08842 476.61045,732.5361C475.21994,726.20765 474.93979,719.8897 482.03515,722.94109C485.93041,724.35585 489.24783,722.60786 492.85193,721.26439zM492.35995,762.13754C491.78716,761.3196 491.88279,761.45613 492.35995,762.13754zM491.88718,761.46233C491.46058,760.52386 491.53389,760.68519 491.88718,761.46233zM494.44901,744.98695C491.15097,743.03148 493.87883,746.68875 494.44901,744.98695zM437.39955,720.90517C446.73015,718.38434 449.52672,730.75201 444.68493,738.53822C447.41774,746.29069 446.75454,754.01495 445.45634,761.17641C449.04563,765.03608 455.09716,759.95914 451.14382,756.54173C455.00055,754.59066 450.00227,744.58866 452.6813,739.04561C451.59565,731.23819 450.41052,719.77699 459.59228,721.91333C463.09111,718.97334 469.89022,724.7279 469.04575,723.08643C469.74941,724.22566 467.88393,737.39195 468.48767,743.13389C468.58337,748.33447 468.18207,756.53291 469.81844,758.09234C470.50055,767.64145 465.42859,758.64435 461.82348,761.81881C467.21537,766.98221 455.92166,760.57447 452.87682,762.66478C445.54247,761.71971 438.98275,759.79936 431.73887,761.9558C425.93456,761.61585 429.65684,756.03727 427.93916,752.14653C431.28209,742.29335 426.81417,730.33191 430.23584,721.23899C432.5457,720.20658 435.02605,721.35297 437.39955,720.90515zM427.35412,760.79726C428.25754,761.23578 427.00845,761.45501 427.35412,760.79726z"/>
  <path id="imagebot_35" transform="translate(31.25 1.95313) matrix(1.05855 0 0 1.05855 -384.311 -213.542)" label="Capa 1" fill="#b5c1c1" fill-rule="nonzero" stroke-width="8" stroke-linejoin="round" stroke-miterlimit="4" stroke-dashoffset="0" d="M534.98208,709.1307C524.2959,710.49863 513.77758,705.55082 503.17279,706.75235C493.1332,708.95933 482.6515,710.24052 472.65998,707.13334C459.64631,708.87861 446.59467,706.86705 433.58983,708.67146C424.1154,710.12898 414.54064,707.12932 405.2255,708.45698C399.3391,713.76787 400.49963,724.04923 400.19024,732.01803C399.4121,737.74272 401.07506,744.93198 400.4469,745.41229C400.66821,750.89061 398.52025,757.93214 400.72715,761.7654C396.33295,770.29397 401.28038,777.25384 408.85899,773.92959C418.30851,773.91699 427.91516,777.38133 437.29961,774.12852C447.90474,776.15272 458.6775,774.58776 469.3156,773.66949C473.3426,773.41118 481.27283,772.46027 479.62909,774.0867C490.60431,776.64458 501.26505,770.2597 512.25001,771.42613C519.69198,770.22564 525.1105,775.79261 533.0302,773.06245C540.31429,776.07367 549.39804,768.50336 557.11893,774.17547C564.24055,770.89519 572.38583,774.79943 580.68469,775.19398C589.13306,774.51308 597.69417,773.48746 605.89415,777.37738C615.92842,781.57777 613.43636,765.92748 613.90585,759.26753C613.81165,751.18342 612.55869,743.29008 613.7884,736.44441C614.10506,728.53515 617.06792,719.22167 613.08539,711.61734C604.64499,710.81576 596.13543,712.25469 587.71185,711.67064C580.58679,712.31888 573.77307,709.05465 566.97219,709.54939C551.83217,711.57794 551.07622,702.83521 534.98208,709.13068L534.98208,709.1307zM569.21503,719.99267C576.56291,721.46747 581.71846,722.53601 589.31518,720.56572C594.61675,722.10393 609.98522,717.48239 605.71018,729.30838C605.97121,738.89006 603.67202,747.08603 603.85272,756.78584C602.13654,761.04135 607.79392,768.05078 600.81906,763.51739C597.57844,762.7033 590.3617,762.51771 595.34156,757.71654C590.60524,751.24797 593.70026,732.68299 592.74619,723.75142C594.15767,716.20883 582.90204,711.39684 585.18754,722.58217C589.8193,730.8869 585.34666,747.42459 587.34667,755.92276C584.70699,759.63673 590.45114,762.48912 584.28381,763.65286C577.0995,764.28455 565.9182,762.04084 569.66761,749.89398C573.17341,743.07776 568.25585,737.89719 569.0646,729.51841C569.0119,726.34225 569.1377,723.1672 569.21513,719.99267zM516.06298,719.67913C521.46341,719.50935 511.93401,728.20398 516.04838,733.29647C518.59786,741.41871 518.80705,750.59033 517.04599,759.04492C512.27648,762.30613 503.87303,756.90204 498.22463,761.67531C501.70377,756.53863 498.83661,751.70051 500.1324,745.77193C499.98644,737.72007 499.19004,727.50311 499.87313,720.88699C505.077,718.78768 510.71321,720.40856 516.06261,719.67909zM534.14917,720.03744C541.53547,718.19509 540.00806,730.19326 541.28527,736.02444C540.77543,739.94012 539.9485,746.72684 541.44108,745.77897C541.60904,749.46382 541.99801,754.29908 541.13339,759.87401C536.25412,761.60973 525.48107,764.45545 523.53534,758.32835C523.85841,749.91877 523.41985,741.06157 523.26659,732.09469C517.04322,719.84067 527.43772,720.6254 534.14917,720.03744zM540.56935,746.01937C540.42155,746.99999 540.47295,746.65523 540.56935,746.01937zM562.92115,721.50378C561.2401,730.74 565.20856,740.11624 565.12135,749.00224C563.66673,755.75557 564.86763,764.08006 556.68264,762.03719C553.13735,763.78482 553.18645,765.85554 550.51659,762.21264C548.35172,762.55512 541.93243,763.9798 546.89281,761.47863C547.1983,752.10783 548.47986,742.61417 546.55595,733.18911C546.64115,727.63116 544.2612,718.90024 551.33551,722.47825C555.18827,722.02091 559.04545,721.46539 562.92115,721.50378zM409.94873,720.04138C416.83622,720.24714 425.1298,721.48026 424.34068,732.23933C420.91931,737.97517 419.78839,750.1904 423.50719,756.96796C423.00917,760.58345 411.33811,765.78442 409.18648,757.63512C407.21269,753.43782 410.76108,743.04873 408.06065,742.55506C412.80841,740.03803 405.69332,729.76849 411.29866,726.9929C411.33346,724.60124 410.8669,722.15168 409.94873,720.04138zM492.85193,721.26439C494.16467,728.38831 493.12847,736.48259 493.47828,742.83118C496.19825,745.82773 491.42541,763.58794 488.07382,763.53046C484.52859,764.21086 477.92773,761.49049 476.11177,760.80215C474.44746,751.38671 476.03677,742.08842 476.61045,732.5361C475.21994,726.20765 474.93979,719.8897 482.03515,722.94109C485.93041,724.35585 489.24783,722.60786 492.85193,721.26439zM492.35995,762.13754C491.78716,761.3196 491.88279,761.45613 492.35995,762.13754zM491.88718,761.46233C491.46058,760.52386 491.53389,760.68519 491.88718,761.46233zM494.44901,744.98695C491.15097,743.03148 493.87883,746.68875 494.44901,744.98695zM437.39955,720.90517C446.73015,718.38434 449.52672,730.75201 444.68493,738.53822C447.41774,746.29069 446.75454,754.01495 445.45634,761.17641C449.04563,765.03608 455.09716,759.95914 451.14382,756.54173C455.00055,754.59066 450.00227,744.58866 452.6813,739.04561C451.59565,731.23819 450.41052,719.77699 459.59228,721.91333C463.09111,718.97334 469.89022,724.7279 469.04575,723.08643C469.74941,724.22566 467.88393,737.39195 468.48767,743.13389C468.58337,748.33447 468.18207,756.53291 469.81844,758.09234C470.50055,767.64145 465.42859,758.64435 461.82348,761.81881C467.21537,766.98221 455.92166,760.57447 452.87682,762.66478C445.54247,761.71971 438.98275,759.79936 431.73887,761.9558C425.93456,761.61585 429.65684,756.03727 427.93916,752.14653C431.28209,742.29335 426.81417,730.33191 430.23584,721.23899C432.5457,720.20658 435.02605,721.35297 437.39955,720.90515zM427.35412,760.79726C428.25754,761.23578 427.00845,761.45501 427.35412,760.79726z"/>
 </g>
</svg>