<svg width="268" height="473" xmlns="http://www.w3.org/2000/svg">

 <g id="imagebot_2" label="Capa 1">
  <title label="Capa 1"/>
  <polyline label="Capa 1" transform="rotate(19.6868 177.94 432.09) matrix(0.338006 0 0 -0.451621 -12.9519 469.532)" fill-rule="evenodd" fill="none" stroke="#373435" stroke-width="6.64742" points="470.387,161.58 571.369,4.23308 659.128,44.8674" class="fil1 str1" id="imagebot_24"/>
  <polyline label="Capa 1" transform="rotate(205.086 35.6781 278.44) matrix(0.416832 0 0 -0.556943 -19.0898 627.672)" fill-rule="evenodd" fill="none" stroke="#373435" stroke-width="6.64742" points="214.706,540.763 80.9004,686.83 48.0761,713.342" class="fil1 str1" id="imagebot_27"/>
  <polyline label="Capa 1" transform="rotate(182.586 205.581 289.465) matrix(0.512824 0 0 -0.6852 -71.5903 687.579)" fill-rule="evenodd" fill="none" stroke="#373435" stroke-width="6.64742" points="458.463,501.089 589.675,645.168 622.499,660.949" class="fil1 str1" id="imagebot_28"/>
  <path stroke="#000000" transform="translate(-43.75 -6.25) matrix(0.940852 0 0 0.940852 31.634 93.0338)" id="imagebot_57" d="M 174.27827379844558 113.05702459036014 C 180.17380740335537 110.55448073218965 186.06934100826516 107.7634722530713 191.3286352308971 103.43197208093308 C 223.71136942821786 101.70118435524607 254.4600928629997 117.48367277883195 285.6628663267448 125.37642727659845 L 286.5695430303488 126.0485045348277 C 285.4806769734304 139.32995938621661 286.7517323836632 149.7252577421536 286.11691635570816 162.04466042839192 C 285.2088162977815 166.85794182609226 280.13028807414116 169.35897539828915 276.0481078764393 170.32102756343983 C 253.64451083605297 174.17074651001593 226.6150122466669 174.17074651001593 206.93144531709248 163.10337089584965 C 203.03003111838225 160.98594996093414 201.0344883578599 165.02747522615095 200.3996723299049 168.10694832621715 C 201.76039906247217 170.03256294249195 203.48408114734556 172.4384484983554 206.114439935823 172.14998387740752 C 226.7046835690014 189.18449937306542 237.31721339956812 210.16690240358014 253.1904608070896 231.0511368458142 C 256.7274962991709 235.67261192487382 261.35339784817063 242.02487472962042 260.8110998511956 247.99050432513855 C 237.7712634285315 257.80736315320627 211.2854861904433 263.00576747416153 186.61306235956295 268.6844427347054 C 148.60807858730405 275.99875770460267 112.4164482222531 272.3408450766672 74.31894641901421 268.2993198114504 C 69.96490554566341 267.6257322672476 64.88637732202308 267.5275636789669 63.97827726409639 261.75374040208953 C 61.800545150259595 260.4050550277104 59.89609706639448 261.17681116019384 57.90055430587214 262.62064455090655 C 52.18578669995404 259.6348091812004 46.65320844735039 256.65350466941493 40.938440841432275 254.15096081124443 C 39.577714108864974 243.4687081203332 44.294710334521916 233.45853268765114 46.74287976968483 223.44986754094265 C 49.01028320585608 203.14105205463073 53.90946878482747 183.9876053380837 63.97685390977362 167.24004417740008 C 65.5183466413326 166.47130861686372 65.88130199363873 164.3553979679217 66.24425734594486 163.10337089584965 C 65.8827253479615 158.96518732832573 61.799121795936834 157.42469563530585 58.62504165616164 156.6529395028224 C 49.645099233811116 145.87402850960393 34.86071788320803 142.8912137118449 29.600000306253285 129.609758860456 C 32.59331444703679 117.67547909747266 45.29105836046032 108.53069752763413 53.90946878482747 101.69967406927252 C 64.15904326308807 95.92434050642156 74.40861774134866 89.95720062492988 86.201108305491 88.5148775201907 C 88.55960641831948 89.09180676208639 91.46182588244577 90.53564015279913 93.82032399527422 88.80183185516499 L 95.27214540449877 87.35799846445225 C 115.0453836564077 109.88089318798684 147.245928500414 121.23673342310094 174.27827379844558 113.05702459036014 z" fill="#FB9A7A" clip-rule="evenodd" fill-rule="evenodd"/>
  <polyline label="Capa 1" transform="rotate(327.033 83.4426 435.658) matrix(0.336824 0 0 -0.450042 47.9905 495.338)" fill-rule="evenodd" fill="none" stroke="#373435" stroke-width="6.64742" points="207.779,189.42 56.283,75.7972 2.72876,152.808" class="fil1 str1" id="imagebot_26"/>
  <path transform="translate(0 -1.25) matrix(0.940852 0 0 0.940852 1.634 123.034)" stroke="#000000" id="imagebot_41" d="M 244.30780060281558 204.92017762457803 C 245.0664973877008 209.1965962017761 247.3425877423564 212.8641524927588 249.18659517467825 216.0714664256574 C 251.68042810436822 243.56855022556758 258.39982788081784 260.3697933912524 252.22138231421906 287.86687719116264 C 247.88524306607468 296.2686973218125 240.73035813955642 296.2686973218125 234.76795403412456 299.6294253740725 C 195.84987097447524 308.64250488655296 158.4508825984638 311.5453876763437 119.09731438874587 315.97282327728817 C 81.48058343770012 310.9317311988983 42.02154616819994 316.73749677848014 10.474389496235773 290.0026893841467 C 8.632083177781347 283.5880615183495 12.209525641040479 276.4087601513604 12.643309677241668 270.90742571488636 C 17.955888285305512 253.18809492864833 24.56811788810544 236.23343764360223 30.42165070602018 219.12296914357958 C 42.99628441425198 224.0106471026082 55.46374794883413 224.77532060380005 69.01482101698545 225.23316586626916 C 128.74603224495408 237.91140457411714 187.61307762825524 225.23316586626916 245.28253884886766 203.08400238347159 L 244.30780060281558 204.92017762457803 z" fill="#FB6747" clip-rule="evenodd" fill-rule="evenodd"/>
  <metadata label="Capa 1" id="imagebot_23"/>
  <ellipse label="Capa 1" transform="translate(-0.300407 -28.2271) matrix(0.416832 0 0 -0.556943 -4.4144 515.899)" fill-rule="evenodd" fill="#fdd1a1" stroke="#373435" stroke-width="6.64742" id="imagebot_16" ry="14.8341" rx="17.9898" cy="620.552" cx="492.465"/>
  <ellipse label="Capa 1" transform="translate(-0.300407 -28.2271) matrix(0.416832 0 0 -0.556943 -4.4144 515.899)" fill-rule="evenodd" fill="#fdd1a1" stroke="#373435" stroke-width="6.64742" id="imagebot_15" ry="14.8341" rx="17.9898" cy="666.948" cx="166.433"/>
  <path transform="matrix(1 0 0 1 0 0) matrix(1 0 0 1 0 0) matrix(1 0 0 1 0 0) translate(-3.75 1.25) matrix(0.416832 0 0 -0.556943 -3.46484 484.547)" label="Capa 1" fill-rule="evenodd" fill="#ffd4aa" stroke="#373435" stroke-width="6.64742" id="imagebot_8" d="M526.77443,604.139C591.18314,819.436 161.72886,864.044 145.9468,648.9566C180.13981,513.3066 408.78661,459.4296 526.77443,604.139z"/>
  <path label="Capa 1" transform="translate(-0.300407 -28.2271) matrix(0.416832 0 0 -0.556943 -4.4144 515.899)" fill-rule="evenodd" fill="none" stroke="#373435" stroke-width="9.97113" id="imagebot_5" d="M241.234,681.782C256.1302,530.297 417.095,531.769 434.392,676.73196"/>

  <metadata id="imagebot_74">PersonPersonpeopleOpen Clip Art ProjectArtFavorPublic Domain2005/10/03image/svg+xmlhttp://purl.org/dc/dcmitype/StillImage</metadata>
  <path transform="translate(225 -40) matrix(0.940852 0 0 0.940852 -197.116 96.7838)" id="imagebot_61" d="M139.657,48.613C142.206,50.334 137.554,51.608 139.912,53.52C139.53,54.858 138.956,55.814 137.555,56.324C135.388,55.559 132.329,55.113 131.692,51.927C130.927,49.888 132.712,48.231 133.986,46.638C136.407,46.191 138.064,47.274 139.657,48.613z" clip-rule="evenodd" fill-rule="evenodd"/>
  <path transform="translate(215 -43.75) matrix(0.940852 0 0 0.940852 -197.116 96.7838)" id="imagebot_60" d="M105.308,54.284C105.308,55.431 105.117,56.069 105.563,57.025C104.161,59.446 101.739,58.427 99.382,58.299C97.916,56.897 96.514,55.622 97.088,53.265C98.171,52.882 98.681,51.225 99.892,51.416C101.994,50.97 104.097,52.755 105.308,54.284z" clip-rule="evenodd" fill-rule="evenodd"/>
  <path transform="translate(318.75 8.75) matrix(0.940852 0 0 0.940852 -197.116 96.7838)" id="imagebot_56" d="M75.994,106.477C76.185,107.687 74.847,107.878 74.72,108.706C73.063,108.77 71.533,109.088 70.96,106.985C71.087,105.902 70.323,104.819 71.661,103.926C73.381,104.119 75.229,104.246 75.994,106.477z" clip-rule="evenodd" fill-rule="evenodd"/>
  <path transform="translate(183.75 16.25) matrix(0.940852 0 0 0.940852 -197.116 96.7838)" id="imagebot_54" d="M166.614,118.648C167.378,119.859 165.403,120.559 164.574,120.942C162.853,121.133 160.751,120.942 160.241,119.158C159.54,117.502 161.515,117.692 161.006,116.163C162.727,113.678 165.021,116.291 166.614,116.928L166.614,118.648z" clip-rule="evenodd" fill-rule="evenodd"/>
  <path transform="translate(290 86.25) matrix(0.940852 0 0 0.940852 -197.116 96.7838)" id="imagebot_51" d="M113.656,128.334C114.293,130.246 113.592,130.946 112.127,131.902C111.044,131.712 108.75,132.858 108.622,130.628C108.175,129.735 108.112,128.207 108.622,127.315C109.769,126.486 113.784,125.339 113.656,128.334z" clip-rule="evenodd" fill-rule="evenodd"/>
  <path transform="translate(266.25 45) matrix(0.940852 0 0 0.940852 -197.116 96.7838)" id="imagebot_47" d="M80.773,144.839C81.156,145.54 81.793,146.496 81.793,147.133C80.519,148.408 78.033,149.364 76.44,147.899C74.273,146.497 76.504,145.605 76.249,143.82C77.651,142.992 80.455,142.992 80.773,144.839z" clip-rule="evenodd" fill-rule="evenodd"/>
  <path transform="translate(133.75 -35) matrix(0.940852 0 0 0.940852 -197.116 96.7838)" id="imagebot_46" d="M145.265,163.894C146.157,164.659 146.03,165.87 146.03,166.889C144.947,168.482 143.29,169.247 141.633,168.482C140.231,167.081 139.657,165.933 140.613,163.894C142.206,163.321 143.863,162.875 145.265,163.894z" clip-rule="evenodd" fill-rule="evenodd"/>
  <path transform="translate(255 58.75) matrix(0.940852 0 0 0.940852 -197.116 96.7838)" id="imagebot_44" d="M80.646,176.384C81.411,178.232 80.264,179.952 78.543,180.463C76.249,181.546 75.931,179.57 74.72,178.423C75.038,176.639 74.847,175.811 76.696,175.11C77.906,174.918 79.563,175.173 80.646,176.384z" clip-rule="evenodd" fill-rule="evenodd"/>
  <path transform="translate(167.5 -8.75) matrix(0.940852 0 0 0.940852 -197.116 96.7838)" id="imagebot_43" d="M132.264,186.835C133.029,187.473 132.137,188.746 131.245,189.129C129.97,189.575 128.695,189.384 127.357,188.364C126.401,187.408 127.166,185.815 127.612,184.795C129.779,182.12 131.564,185.306 132.264,186.835z" clip-rule="evenodd" fill-rule="evenodd"/>
  <path transform="translate(203.75 25) matrix(0.940852 0 0 0.940852 -197.116 96.7838)" id="imagebot_42" d="M59.425,189.384C59.361,191.233 57.831,191.806 56.366,192.444C54.709,192.761 53.626,191.806 52.287,191.423C52.542,191.233 52.542,190.978 52.542,190.723C51.522,190.277 52.542,189.384 52.542,188.874C53.243,187.918 54.709,186.962 56.366,187.408C57.386,187.983 58.724,188.238 59.425,189.384z" clip-rule="evenodd" fill-rule="evenodd"/>
  <metadata id="imagebot_249">image/svg+xml</metadata>

  <g display="inline" transform="matrix(0.856577 0 0 0.856577 -207.905 172.67)" label="hi" id="imagebot_133"/>
  <path display="inline" label="clothes" fill="#999999" fill-rule="evenodd" stroke="rgb(0, 0, 0)" stroke-width="0.036" stroke-miterlimit="10" d="M 80.64008842284625 99.08674492668244 C 79.65390654004563 102.05874309355582 78.18727707331647 104.90373279175945 76.3413468824333 107.9011326523668 C 74.39426983177557 110.87313081924022 72.54833964089232 113.38789849890233 69.43807370282877 116.71552037805118 C 66.2013741900472 120.04314225720003 61.144031201326015 124.46303696690919 57.47745753450312 127.4350351337826 C 53.78559715273664 130.35622991318814 50.09373677097017 132.84559589911623 47.56506527660957 133.81086026100672 C 44.960533637418166 134.57291107302558 43.114603446534915 133.93786872967655 42.330715283283126 132.48997218684082 C 41.521540405087734 130.99127225653712 42.00198798901624 128.78132490168252 42.88702301204245 125.1742843914601 C 43.64562446035063 121.51644049376974 44.88467349258735 116.89333223418889 47.388058272004315 110.89853251297419 C 49.86615633647773 104.8021260168236 53.70973700790586 96.03854167860715 57.85675825865721 89.12928098296982 C 61.877345934690624 82.1692168998646 66.45424133948327 75.6917849977046 71.86559833741495 69.79859205142571 C 77.30224205029029 63.80379233021098 83.37105363675573 58.31702648367546 90.17317995658578 54.02414024263609 C 96.87415941664139 49.731254001596724 103.92915288590746 46.81005922219124 112.02090166786135 44.47310339866686 C 120.06207701992813 42.11074588140851 130.530777006581 40.73905441977463 138.3696586390989 40.15481546389353 C 146.13338253553437 39.545174814278475 151.94862456381534 40.15481546389353 158.5491595728449 41.094678132050085 C 165.0984187432389 42.009139106472674 171.6216887899408 42.82199330595941 177.43763322697023 45.59077792296113 C 183.12854890677843 48.257955765027006 188.8173573603414 53.21128604314935 192.76138248279543 57.402565509252874 C 196.605665562972 61.5938449753564 197.94586145498315 65.88673121639575 200.7772711199186 70.56064286344454 C 203.58409647865884 75.23455451049331 207.07436554962496 80.67051696956091 209.57634551154504 85.19201845420592 C 211.95399912499246 89.56110977644717 213.29419501700355 91.89806559997156 215.1654119228305 97.00380604049765 C 217.0106397049652 102.03334139982186 219.41287762460777 110.13648170095537 220.60205563570574 115.42003399761919 C 221.66409766333717 120.62738121308115 221.8656889741376 124.71705390424883 221.89167809782967 128.37489780193914 C 221.96683583391203 131.9565366184276 221.5622483948143 134.82692801036518 220.7790626403109 136.98607197775183 C 219.89402761728476 139.1452159451385 218.4273981505556 141.0757446689195 216.65662569575474 141.30435991252517 C 214.78540878992786 141.48217176866288 212.5110092625002 140.9741378939837 209.93035952075556 138.12914819578006 C 207.32653029031255 135.2079534163746 204.34269792696708 129.79739265104092 201.3588655636215 124.05660986716585 C 198.35044889408087 118.21422030835487 195.26476726221247 110.89853251297419 192.00278103448736 103.58284471759349 C 188.6909237856233 96.24175522847882 185.2006547146573 88.67205049575854 181.5340810478344 80.49270511342318 L 181.5340810478344 80.49270511342318 C 183.07727306814283 78.18115098363275 184.13931509577426 75.20915281675934 184.72090953947722 71.6783173877388 C 185.2259414296009 67.96967010258054 185.02435011880053 60.806392469603615 184.89791654408245 59.10447898942824 C 184.77148296936443 57.402565509252874 184.24046195554868 59.96813657638291 183.9868923973642 61.89866530016391 C 183.65886751184573 63.82919402394494 183.86045882264617 67.36002945296548 183.02669963825556 70.73845471958225 C 182.11567549153736 74.04067490499715 181.20605616231595 78.25735606483462 178.7272556890941 81.63578133145143 C 176.1985841947335 84.96340321060028 173.13959409530563 87.732187827602 167.90454169323075 90.62798091327352 C 162.5444605339347 93.49837230521108 153.74538614230826 96.74978910315805 146.96784412867336 98.70571952067303 C 140.11514437895613 100.48383808205027 134.45092023158838 101.22048720033513 127.34465092368666 101.70311938128037 C 120.18851059464612 102.13494817475771 111.16115335977875 101.88093123741811 104.56132075949762 101.52530752514267 C 97.91091472932925 101.22048720033513 92.39841087162313 100.68705163192197 87.92266232660484 99.64558218882958 C 83.37105363675573 98.50250597080134 80.69066185273348 96.44496877835051 77.73211620433162 94.64144852323932 C 74.69771041109883 92.68551810572434 71.1322836040504 88.77365727069439 70.17138843619338 88.39263186468497 C 69.21049326833631 88.01160645867556 71.18285703393764 91.28842495035649 72.09317877190742 92.45690286211868 C 72.95292707999002 93.52377399894505 74.19197611222674 94.05720956735821 75.60803214906866 95.14948239791852 C 77.04937490085422 96.21635353474487 78.69301137218861 97.5626433026448 80.64008842284625 99.08674492668244 L 80.64008842284625 99.08674492668244 z" id="imagebot_99"/>
  <path transform="translate(-33.75 12.5) matrix(0.565904 0 0 0.513898 -204.132 36.7569)" display="inline" label="clothes" fill-rule="evenodd" stroke="rgb(0, 0, 0)" stroke-width="0.036" stroke-miterlimit="10" d="M35.327,142.434C35.579,142.83 36.659,142.542 37.739,141.858C38.819,141.138 39.503,140.238 39.251,139.878C38.999,139.482 37.919,139.77 36.839,140.454C35.759,141.174 35.075,142.074 35.327,142.434L35.327,142.434z" id="imagebot_97"/>
 </g>
 <metadata id="imagebot_1">image/svg+xmlOpenclipart</metadata>
</svg>