<svg width="558" height="472" xmlns="http://www.w3.org/2000/svg">

 <g id="imagebot_2" label="Capa 1">
  <title label="Capa 1"/>
  <polyline label="Capa 1" transform="translate(279.892 4.24516) matrix(0.416832 0 0 -0.556943 -16.9144 522.149)" fill-rule="evenodd" fill="none" stroke="#373435" stroke-width="6.64742" points="214.706,540.763 80.9004,686.83 48.0761,713.342" class="fil1 str1" id="imagebot_84"/>
  <polyline label="Capa 1" transform="translate(279.892 4.24516) matrix(0.336824 0 0 -0.450042 9.22844 457.94)" fill-rule="evenodd" fill="none" stroke="#373435" stroke-width="6.64742" points="207.779,189.42 56.283,75.7972 2.72876,152.808" class="fil1 str1" id="imagebot_83"/>
  <polyline label="Capa 1" transform="translate(279.892 4.24516) matrix(0.338006 0 0 -0.400778 13.286 463.232)" fill-rule="evenodd" fill="none" stroke="#373435" stroke-width="6.64742" points="470.387,161.58 571.369,4.23308 659.128,44.8674" class="fil1 str1" id="imagebot_82"/>
  <polygon label="Capa 1" transform="translate(279.892 4.24516) matrix(0.569592 0 0 -1.06784 -67.4734 600.242)" fill-rule="evenodd" fill="#bf00bf" stroke="#373435" stroke-width="6.64742" id="imagebot_81" points="186.949,216.563 185.055,215.3 230.504,163.539 359.275,221.613 408.511,147.127 494.99,167.327 437.578,273.869 435.654,272.743 245.666,285.566 "/>
  <metadata label="Capa 1" id="imagebot_80"/>
  <ellipse label="Capa 1" transform="translate(279.892 4.24516) matrix(0.416832 0 0 -0.556943 -4.4144 515.899)" fill-rule="evenodd" fill="#fdd1a1" stroke="#373435" stroke-width="6.64742" id="imagebot_79" ry="14.8341" rx="17.9898" cy="620.552" cx="492.465"/>
  <ellipse label="Capa 1" transform="translate(279.892 4.24516) matrix(0.416832 0 0 -0.556943 -4.4144 515.899)" fill-rule="evenodd" fill="#fdd1a1" stroke="#373435" stroke-width="6.64742" id="imagebot_78" ry="14.8341" rx="17.9898" cy="666.948" cx="166.433"/>
  <polygon label="Capa 1" transform="translate(279.892 4.24516) matrix(0.587232 0 0 -0.556943 -64.318 508.086)" fill-rule="evenodd" fill="#d4aaff" stroke="#373435" stroke-width="6.64742" id="imagebot_77" points="185.685,491.148 245.653,429.918 166.117,290.415 497.515,270.216 495.621,270.216 433.76,419.187 482.996,464.004 428.71,546.065 224.822,558.058 "/>
  <polyline label="Capa 1" transform="translate(279.892 4.24516) matrix(0.416832 0 0 -0.556943 11.2106 504.962)" fill-rule="evenodd" fill="none" stroke="#373435" stroke-width="6.64742" points="458.463,501.089 589.675,645.168 622.499,660.949" class="fil1 str1" id="imagebot_76"/>
  <polyline label="Capa 1" transform="translate(279.892 4.24516) matrix(0.416832 0 0 -0.556943 4.9606 515.898)" fill-rule="evenodd" fill="none" stroke="#373435" stroke-width="6.64742" points="561.901,696.929 589.675,645.168 638.28,616.763" class="fil1 str1" id="imagebot_75"/>
  <polyline label="Capa 1" transform="translate(279.892 4.24516) matrix(0.416832 0 0 -0.556943 9.6481 509.649)" fill-rule="evenodd" fill="none" stroke="#373435" stroke-width="6.64742" points="635.755,642.012 589.675,645.168 594.725,688.092" class="fil1 str1" id="imagebot_74"/>
  <polyline label="Capa 1" transform="translate(279.892 4.24516) matrix(0.416832 0 0 -0.556943 -9.1019 533.087)" fill-rule="evenodd" fill="none" stroke="#373435" stroke-width="6.64742" points="114.987,726.598 80.9004,686.83 41.1329,667.261" class="fil1 str1" id="imagebot_73"/>
  <polyline label="Capa 1" transform="translate(279.892 4.24516) matrix(0.416832 0 0 -0.556943 -10.6644 528.398)" fill-rule="evenodd" fill="none" stroke="#373435" stroke-width="6.64742" points="33.5582,687.461 80.9004,686.83 79.6374,725.335 79.6374,724.704" class="fil1 str1" id="imagebot_72"/>
  <path label="Capa 1" transform="translate(279.892 4.24516) matrix(0.416832 0 0 -0.556943 -4.4144 515.899)" fill-rule="evenodd" fill="#ffd4aa" stroke="#373435" stroke-width="6.64742" id="imagebot_71" d="M526.77443,604.139C591.18314,819.436 161.72886,864.044 145.9468,648.9566C180.13981,513.3066 408.78661,459.4296 526.77443,604.139z"/>
  <ellipse label="Capa 1" transform="translate(279.892 4.24516) matrix(0.416832 0 0 -0.556943 -4.4144 515.899)" fill-rule="evenodd" fill="#373435" stroke="#373435" stroke-width="1.32948" id="imagebot_70" ry="10.0995" rx="8.20582" cy="717.13" cx="320.138"/>
  <ellipse label="Capa 1" transform="translate(279.892 4.24516) matrix(0.416832 0 0 -0.556943 -4.4144 515.899)" fill-rule="evenodd" fill="#373435" stroke="#373435" stroke-width="1.32948" id="imagebot_69" ry="10.0995" rx="8.20582" cy="712.71198" cx="361.79999"/>
  <path label="Capa 1" transform="translate(279.892 4.24516) matrix(0.416832 0 0 -0.556943 -4.4144 515.899)" fill-rule="evenodd" fill="none" stroke="#373435" stroke-width="9.97113" id="imagebot_68" d="M241.234,681.782C256.1302,530.297 417.095,531.769 434.392,676.73196"/>
  <metadata label="Capa 1" id="imagebot_67"/>
  <path label="Capa 1" id="imagebot_59" d="M155.64001,419.64396L253.60799,598.88366C221.89252,624.88241 194.28686,630.76164 170.79372,616.52159C169.71352,585.88897 178.95569,563.61183 198.52169,549.69152C136.81977,575.44313 120.46765,559.80297 149.46515,502.76862C102.16468,507.02628 96.00314,486.17193 130.98079,440.20412C139.74736,433.85053 147.96711,426.99715 155.64007,419.64402L155.64001,419.64396z" stroke="rgb(55, 52, 53)" stroke-width="6.95303" fill="#aa56ff" clip-rule="evenodd" fill-rule="evenodd" transform="rotate(67.8844 337.365 214.507) matrix(0.316212 0 0 0.316212 280.086 49.9386)"/>
  <path label="Capa 1" id="imagebot_58" d="M450.34748,440.22517C449.16877,423.46436 449.94302,434.54996 449.94302,433.17713L496.15668,46.60637C553.37458,105.12103 553.7054,153.54771 497.14746,191.8864C556.05847,260.76088 550.55897,295.35378 480.64907,295.66758C542.29166,396.61261 538.77799,429.90872 470.10828,395.55593C506.53377,423.96622 517.83757,457.26248 504.02142,495.44428C488.99532,542.32913 471.10425,523.92322 450.34747,440.22447L450.34748,440.22517z" stroke="rgb(55, 52, 53)" stroke-width="6.95303" fill="#aa56ff" clip-rule="evenodd" fill-rule="evenodd" transform="rotate(83.7489 397.324 363.582) matrix(0.496285 0 0 0.496285 152.345 222.81)"/>
  <path label="Capa 1" id="imagebot_39" d="M71.55153,22.98846C71.70617,17.55672 79.56768,5.07325 86.34314,6.5458C86.76736,5.93516 86.49904,6.13735 87.39472,6.08207C91.19376,3.98909 119.67125,9.07375 115.25437,35.31994C110.99079,60.65116 56.30175,48.49116 83.92086,37.19004C97.62743,31.58091 128.47976,53.83418 116.66625,70.10765C104.04281,70.81044 115.03925,76.74728 94.83632,73.45608C72.18251,69.76586 96.74099,57.34283 98.81477,57.38947C124.25486,52.60156 148.74812,80.42354 126.32313,98.50571C104.68016,115.95619 103.41008,63.48009 132.70534,84.95563C144.79694,93.82051 150.41978,101.75493 139.71563,122.15439C139.07529,122.9223 139.27651,122.65709 138.74207,123.70035" stroke="#000000" stroke-width="6.95303" fill="none" clip-rule="evenodd" fill-rule="evenodd" transform="rotate(340.503 423.596 49.0047) matrix(0.507049 0 0 0.507049 368.596 16.6005)"/>
  <path label="Capa 1" d="M71.55153,22.98846C71.70617,17.55672 79.56768,5.07325 86.34314,6.5458C86.76736,5.93516 86.49904,6.13735 87.39472,6.08207C91.19376,3.98909 119.67125,9.07375 115.25437,35.31994C110.99079,60.65116 56.30175,48.49116 83.92086,37.19004C97.62743,31.58091 128.47976,53.83418 116.66625,70.10765C104.04281,70.81044 115.03925,76.74728 94.83632,73.45608C72.18251,69.76586 96.74099,57.34283 98.81477,57.38947C124.25486,52.60156 148.74812,80.42354 126.32313,98.50571C104.68016,115.95619 103.41008,63.48009 132.70534,84.95563C144.79694,93.82051 150.41978,101.75493 139.71563,122.15439C139.07529,122.9223 139.27651,122.65709 138.74207,123.70035" stroke="#000000" stroke-width="6.95303" fill="none" clip-rule="evenodd" fill-rule="evenodd" transform="rotate(31.9966 451.722 50.5671) matrix(-0.507049 0 0 0.507049 506.722 18.163)" id="imagebot_7"/>
  <path label="Capa 1" d="M71.55153,22.98846C71.70617,17.55672 79.56768,5.07325 86.34314,6.5458C86.76736,5.93516 86.49904,6.13735 87.39472,6.08207C91.19376,3.98909 119.67125,9.07375 115.25437,35.31994C110.99079,60.65116 56.30175,48.49116 83.92086,37.19004C97.62743,31.58091 128.47976,53.83418 116.66625,70.10765C104.04281,70.81044 115.03925,76.74728 94.83632,73.45608C72.18251,69.76586 96.74099,57.34283 98.81477,57.38947C124.25486,52.60156 148.74812,80.42354 126.32313,98.50571C104.68016,115.95619 103.41008,63.48009 132.70534,84.95563C144.79694,93.82051 150.41978,101.75493 139.71563,122.15439C139.07529,122.9223 139.27651,122.65709 138.74207,123.70035" stroke="#000000" stroke-width="6.95303" fill="none" clip-rule="evenodd" fill-rule="evenodd" transform="rotate(28.2177 436.096 42.7547) matrix(0.507049 0 0 0.507049 381.096 10.3505)" id="imagebot_6"/>
  <polygon label="Capa 1" id="imagebot_5" points="430.802,59.4595 466.123,3.42576 494.822,55.7807 552.955,87.4225 552.219,30.7609 482.313,56.5163" stroke="rgb(55, 52, 53)" stroke-width="3.47651" fill="#bf00bf" clip-rule="evenodd" fill-rule="evenodd" transform="translate(279.892 4.24516) matrix(0.689345 0 0 0.810355 -194.838 38.4705)"/>
  <ellipse label="Capa 1" id="imagebot_4" cx="522.26349" cy="60.63756" rx="37.34194" ry="36.03214" stroke="rgb(55, 52, 53)" stroke-width="3.47651" fill="#aa56ff" clip-rule="evenodd" fill-rule="evenodd" transform="translate(279.892 4.24516) matrix(0.404811 0 0 0.404811 -62.0138 50.9009)"/>
  <path label="Capa 1" d="M155.64001,419.64396L253.60799,598.88366C221.89252,624.88241 194.28686,630.76164 170.79372,616.52159C169.71352,585.88897 178.95569,563.61183 198.52169,549.69152C136.81977,575.44313 120.46765,559.80297 149.46515,502.76862C102.16468,507.02628 96.00314,486.17193 130.98079,440.20412C139.74736,433.85053 147.96711,426.99715 155.64007,419.64402L155.64001,419.64396z" stroke="rgb(55, 52, 53)" stroke-width="6.95303" fill="#aa56ff" clip-rule="evenodd" fill-rule="evenodd" transform="rotate(-67.8844 487.366 228.57) matrix(-0.316212 0 0 0.316212 544.645 64.0013)" id="imagebot_3"/>
 </g>
 <metadata id="imagebot_1">image/svg+xmlOpenclipart</metadata>
</svg>